<svg xmlns="http://www.w3.org/2000/svg" width="215" height="53" fill="none" viewBox="0 0 215 53"><path fill="#000" d="m169.797 34.726 39.847-25.26a.08.08 0 0 1 .045-.013.078.078 0 0 1 .05.022l3.178 5.379a.33.33 0 0 1 .077.118l-.229 3.895a.32.32 0 0 1-.003.234l-.053.13a.319.319 0 0 1-.147.162l-14.583 8.585-23.448 13.734c-.064.033-4.845-.88-5.256-.94-.079-.012-.262-.084-.368-.506.091-.635.389-3.339.75-5.313l.14-.227Z"/><path fill="#000" d="m214.497 43.002-1.09 4.995.302.29c.175.139-.037.707-.538.606-1.027-.205-3.008-.468-4.346-.646-.48-.063-.878-.116-1.119-.152a.595.595 0 0 1-.36-.197l-10.625-12.192-5.581 16.233h.001a.983.983 0 0 1-.836.663l-6.466.39a1.874 1.874 0 0 1-1.408-.457l-5.553-4.158a.566.566 0 0 1-.129-.684l11.35-21.88L171.815 7.13c-.233-.174-.03-.519.005-.577l.005-.009 3.106-4.657a1.34 1.34 0 0 1 .756-.55l4.696-1.32a.436.436 0 0 1 .458.147l12.486 15.571 4.31-8.31.004-.005.046-.056.004-.004.476-.382a.18.18 0 0 1 .216-.008l.323.221a.146.146 0 0 0 .175-.007l3.04-2.477.26-.534c.036-.048.552-.475.612-.52.031-.024.122 0 .181.075l3.113 4.567a.033.033 0 0 1 .005.013l.012.094c.001.005 0 .01-.002.014l-5.594 16.274 12.169 14.934c1.116 1.26 1.853 2.296 2.215 2.686.045.05.081.105.108.164l-.101.456-.402.072Z"/><path fill="#3A3A3A" fill-rule="evenodd" d="M200.393 22.92a.028.028 0 0 0 .011-.013v-.002c.031-.09.067-.176.158-.23a.024.024 0 0 0 .009-.008l.115-.187a.028.028 0 0 1 .014-.012c.075-.029.111-.09.146-.152a.353.353 0 0 1 .117-.14c.052-.031.064-.108.05-.177-.011-.054-.044-.085-.094-.11-.055-.026-.066-.073-.06-.127l.044-.417-.001-.01-.015-.056-.01-.037c-.017-.064-.033-.127-.051-.19-.013-.045-.015-.088.025-.118l.04-.032c.051-.04.103-.082.162-.1a.68.68 0 0 0 .251-.132c.038-.033.1-.083.162-.043.062.04.114.02.166.002.015-.006.03-.012.045-.016a.017.017 0 0 0 .007-.002l.003-.002h.002c.002-.003.006-.005.009-.007.019-.012.039-.024.063-.023a.03.03 0 0 0 .022-.006c.091-.084.136-.098.257-.077.133.022.264.025.396-.005a.036.036 0 0 0 .01-.025v-.011l.007.005.003-.006.003-.006.008-.012.005-.008.009-.016c.008-.013.006-.031-.008-.039-.015-.009-.017-.027-.014-.047.004-.027.021-.05.054-.053.007 0 .024.017.022.024-.001.014-.007.028-.012.042l-.006.016.043-.012a1.82 1.82 0 0 0 .043-.012.028.028 0 0 0 .018-.013l.021-.036a.44.44 0 0 0 .078-.2c0-.006.002-.011.006-.016.131-.15.232-.32.333-.489l.08-.133a.13.13 0 0 0 .003-.005l.001-.007a.138.138 0 0 1 .032-.077.028.028 0 0 0 .005-.03.205.205 0 0 1 .004-.197l.045-.081c.046-.076.091-.153.089-.245 0-.004.011-.008.022-.013a.115.115 0 0 0 .015-.006l.01-.006a5.21 5.21 0 0 0 .009-.023l.009-.022a.031.031 0 0 0-.002-.022c-.016-.033-.016-.07-.016-.105l-.001-.036c-.001-.02-.021-.031-.04-.025-.038.012-.074-.006-.109-.023l-.023-.012c-.003 0-.005-.002-.008-.003l-.007-.003a.18.18 0 0 0-.076-.024c-.019 0-.033.017-.029.034l.001.005.002.007c.007.03.015.059.01.086-.015.073.028.112.074.153.007.006.01.014.009.022-.005.099-.011.105-.133.131-.012.003-.022.013-.023.025l-.001.005v.01c-.003.023-.005.046-.01.067-.01.041-.027.089-.079.09-.049 0-.074-.045-.089-.083-.01-.027-.016-.055-.023-.084a.566.566 0 0 0-.013-.058c-.017-.057-.053-.079-.117-.067a.352.352 0 0 0-.073.023.433.433 0 0 0-.032.012l-.005.002a.174.174 0 0 1-.081.098c-.019.01-.056.026-.06.02-.039-.045-.087-.04-.134-.034a.211.211 0 0 1-.075.002.033.033 0 0 0-.027.006l-.039.029c-.062.047-.125.094-.161.166-.024.049-.07.063-.122.061-.018 0-.033.015-.031.032.004.022.017.04.03.06.009.013.019.027.025.042.027.068-.004.12-.079.117a.616.616 0 0 0-.301.075c-.108.049-.209.108-.31.166-.175.102-.349.203-.557.254a.036.036 0 0 0-.013.006c-.22.199-.484.335-.749.47l-.179.094h-.001c-.007.04-.036.057-.074.064a.044.044 0 0 0-.012.005l-.043.03a2.184 2.184 0 0 1-.118.078c-.207.123-.415.244-.623.366h-.001l-.119.07a.032.032 0 0 0-.013.018.309.309 0 0 1-.151.215c-.051.029-.06.078-.038.131a.884.884 0 0 1 .03.081c.007.022.003.046-.021.053-.067.019-.087.069-.107.119-.013.03-.025.062-.048.085a.028.028 0 0 0-.008.015c-.026.15-.142.237-.258.323l-.034.026c-.031.023-.071.047-.104.029-.042-.024-.085-.021-.128-.019a.298.298 0 0 1-.091-.004.453.453 0 0 0-.366.067.495.495 0 0 1-.386.089c-.034-.007-.097-.004-.106.014-.018.03-.051.055-.084.08-.066.048-.133.097-.078.205.003.006-.001.016-.006.026a3.257 3.257 0 0 0-.014.038c-.008.02-.016.039-.012.056.006.034.033.034.06.034.011 0 .023 0 .033.002.102.026.132.088.091.177-.024.052-.07.064-.126.076-.163.035-.209.163-.109.285.023.028.048.055.073.082.031.033.054.07.048.115-.004.038-.033.047-.061.055a.134.134 0 0 0-.04.017.448.448 0 0 0-.024.02c-.029.023-.058.047-.102.025a.031.031 0 0 0-.021-.004h-.005l-.012.003a.421.421 0 0 1-.209-.001c-.073-.012-.094-.059-.08-.117a.259.259 0 0 1 .036-.075l.019-.033c-.001-.009.001-.018.003-.027a.028.028 0 0 0-.001-.018l-.007-.018c-.009-.02-.017-.04-.028-.042-.034-.002-.039.022-.043.046-.002.009-.003.017-.006.024l-.006.018c-.005.017-.01.034-.026.044a.033.033 0 0 0-.014.014 6.806 6.806 0 0 1-.024.053.031.031 0 0 1-.048.01c-.056-.05-.083-.111-.058-.193.006-.022.004-.046.002-.07l-.002-.034a.12.12 0 0 1-.038.018c-.002.037-.009.069-.049.089-.04.02-.079.041-.118.063a5.628 5.628 0 0 1-.118.063l-.228.113c-.373.186-.747.373-1.09.612a.03.03 0 0 1-.029.003c-.031-.013-.065.004-.102.023-.051.025-.108.053-.167.01a.15.15 0 0 1-.069-.083l-.041-.105a11.114 11.114 0 0 0-.068-.173c-.02-.05-.056-.066-.108-.049a.215.215 0 0 0-.11.071c-.088.105-.213.152-.337.2l-.084.032a1.578 1.578 0 0 0-.459.285l2.426 3.159c.01-.002.545-.31.556-.313.066-.018.131-.04.192-.068a.556.556 0 0 1 .217-.06c.157-.004.27-.084.377-.176.049-.043.078-.091.057-.151-.033-.088.01-.133.089-.167.025-.01.049-.022.073-.034.056-.026.111-.052.174-.07.105-.028.204-.077.301-.128.18-.095.334-.22.482-.353a.232.232 0 0 1 .124-.066.029.029 0 0 0 .02-.011.55.55 0 0 1 .219-.198.027.027 0 0 0 .015-.014 1.02 1.02 0 0 1 .158-.224c.029-.035.058-.07.085-.105a.119.119 0 0 1 .076-.043.026.026 0 0 0 .022-.02c.007-.035.032-.06.066-.078-.01-.087.073-.118.157-.148l.019-.03c-.013-.066.016-.119.045-.171a.295.295 0 0 0 .048-.13v-.005l-.001-.004v-.002a.282.282 0 0 1-.005-.174.194.194 0 0 0-.014-.12l-.025-.08a.367.367 0 0 1-.08-.148c-.052-.096.005-.169.08-.21a.8.8 0 0 0 .061-.04c.029-.021.058-.043.093-.056a.035.035 0 0 1 .021 0l.029.01h.003l.032.01a.03.03 0 0 0 .038-.016.146.146 0 0 1 .007-.02l.004-.009.002-.005.002-.005.004.007c.037-.085.116-.125.194-.164l.061-.032c.142-.08.278-.169.408-.264.125-.092.236-.198.347-.304h.001c.067-.065.134-.13.204-.19.019-.033.052-.046.085-.058a.256.256 0 0 0 .053-.024Zm-6.651 1.247c.025.018.041.04.046.07.005.035-.035.066-.073.056-.04-.01-.063-.035-.073-.078l.004-.015c.002-.013.006-.028.016-.037.024-.023.054-.014.08.004Zm3.748-.502c.013.025-.014.073-.05.087a.082.082 0 0 1-.104-.056c-.003-.03.003-.058.035-.07.038-.015.102.01.119.04Zm.642.227c.006.002.011.015.008.018l-.001.002c-.007.01-.017.024-.026.024l-.021.001a.213.213 0 0 1-.09-.008c-.077-.033-.151-.072-.225-.111h-.001l-.034-.019c-.006-.003-.008-.012-.011-.021l-.004-.013c0-.029.052-.054.09-.041.083.026.154.07.227.114.029.018.058.037.088.053Zm.393.068c.001 0-.007.012-.013.013a.378.378 0 0 1-.046.01l-.009.002-.01.003v-.002l-.004.001-.005.002h-.004a.09.09 0 0 1-.031.006.048.048 0 0 1-.024-.009h-.002l-.001-.001h-.002l-.001-.001a.02.02 0 0 0-.005-.003.047.047 0 0 0 .005-.012c.004-.01.008-.018.014-.02a.58.58 0 0 1 .109-.018c.007 0 .015.011.023.02a.106.106 0 0 0 .006.009Zm-3.51 1.075c.03-.063.091-.096.153-.12.026-.011.025.022.011.042-.016.021-.011.044.014.05l.013.004c.077.02.154.04.225-.017l.005-.005-.006.006-.009.031c-.01.044-.021.089-.095.08a.179.179 0 0 0-.109.021c-.06.031-.109.006-.158-.019a.383.383 0 0 0-.034-.017c-.02-.009-.019-.036-.01-.056Zm-1.616-.172c0-.01-.001-.02.003-.026.025-.038.094-.063.136-.05.039.012.06.041.066.077.004.018.001.046-.011.057-.042.04-.163.01-.194-.046v-.012Zm.959-.56a.294.294 0 0 1 .113-.1c.038-.021.084-.005.109.042a.347.347 0 0 1 .022.055.12.12 0 0 0 .009.025.109.109 0 0 0 .015.002c.01.001.02.003.029.007.013.006.024.015.036.024l.003.003.002.001.005.004.006.005h-.002l-.002.003-.001.001-.002.001-.004.004-.001.002-.002.001h-.001c-.01.01-.019.02-.031.026-.038.023-.077.028-.116.006a.036.036 0 0 0-.024-.004c-.06.011-.106-.021-.151-.054-.019-.014-.025-.032-.012-.055Zm1.706-.588-.024.007h-.001c-.072.022-.06.069-.042.118.021.025.02.049-.008.07a16.078 16.078 0 0 0-.101.073l-.005.002c-.11.049-.164.125-.136.24a.032.032 0 0 0 .009.015l.027.022a.884.884 0 0 1 .066.058c.021.02.044.039.067.058.062.05.125.1.137.187.003.02.041.04.066.05.06.023.121.044.181.065h.001l.068.024h.002a.033.033 0 0 0 .007.002c.026 0 .053.003.079.005.062.004.125.008.187.008.075 0 .135.014.161.088.014.039.048.051.083.064a.19.19 0 0 1 .068.034c.009.008.011.02.007.03l-.013.042c-.011.04-.022.08-.06.112-.052.043-.1.09-.149.135a2.872 2.872 0 0 1-.063.06c-.049.077-.116.1-.205.054l-.042-.02h-.003l-.009-.005a.155.155 0 0 1-.006-.002c-.002.009-.002.02-.002.03.001.024.001.049-.029.06-.025.01-.044-.007-.061-.023l-.013-.012c-.04-.031-.073-.066-.08-.119-.011-.085-.068-.134-.151-.16a.08.08 0 0 1 .004.015l.001.003.001.005a.13.13 0 0 1 .005.019c.002.006.007.013.011.02.01.017.021.034-.007.048-.012.006-.041-.008-.058-.019-.037-.022-.052-.059-.066-.095a.03.03 0 0 0-.013-.014.466.466 0 0 1-.155-.13.195.195 0 0 0-.124-.085l-.032-.002a.378.378 0 0 1-.13-.019.03.03 0 0 0-.027.001c-.029.017-.06.029-.088.004-.031-.027-.019-.064.007-.093a.707.707 0 0 1 .048-.047l.003-.002.007-.007.006-.009c.03-.067.035-.12-.044-.176l-.018-.013-.007-.006c-.063-.045-.124-.09-.192-.127-.065-.036-.077-.077-.027-.114.067-.05.121-.113.174-.176.043-.051.087-.103.138-.147l.006-.009c.033-.075.099-.118.173-.154l.006-.004a1.16 1.16 0 0 1 .044-.037c.034-.028.069-.056.096-.09.056-.069.12-.057.189-.035a.032.032 0 0 0 .017 0l.026-.006.021-.005.045-.012.037.023c.015.096-.038.11-.09.123Zm6.398-4.473a.067.067 0 0 1 .009.08c-.014.03-.043.038-.074.037-.07 0-.143-.072-.161-.154l.007-.01c.005-.01.011-.018.018-.02a.203.203 0 0 1 .201.067Zm-3.699 2.902c.048-.002.096.05.093.099-.002.02-.011.04-.03.042-.064.008-.107-.027-.112-.082-.003-.033.018-.058.049-.059Zm-.81.65c.02.012.03.034.015.054-.006.01-.023.02-.035.018h-.004c-.035-.003-.072-.006-.093-.04l.003-.013c.002-.01.004-.02.01-.024.035-.023.072-.015.104.005Zm-.465.126c.008.038-.013.066-.051.087-.039.014-.067-.007-.085-.038-.017-.03-.001-.053.026-.07.044-.026.103-.015.11.021Zm-.041.397c-.019-.056.013-.13.06-.14.082-.02.17.027.194.103.012.036-.017.082-.063.099-.072.026-.174-.007-.191-.062Z" clip-rule="evenodd"/><path fill="#3A3A3A" d="m203.188 19.345.001-.002v.002h-.001Zm-1.184 2.038c-.026-.081-.074-.139-.17-.153a.134.134 0 0 1-.054-.026l-.024-.015c.007-.048.043-.077.081-.105.038-.03.077-.06.082-.112.002-.025.03-.026.051-.014.077.045.096.086.045.152-.039.05-.016.06.013.07a.148.148 0 0 1 .025.012c.01.006.014.02.018.036l.007.02-.018.052-.009.025-.009.027a.03.03 0 0 1-.02.018.036.036 0 0 0-.018.013Zm-4.794.727a1.832 1.832 0 0 1-.066-.004c.035-.057.093-.084.151-.111.019-.009.041.002.043.021.014.102.001.101-.128.095Zm-.107.166c.002-.004.004-.008.003-.011-.004-.016-.015-.018-.024-.006-.003.003-.002.012.002.016.001.002.006.003.01.004h.003l.003.001.002-.003.001-.001Zm4.444-.606c.028.016.062.017.078-.013a2.98 2.98 0 0 0 .021-.047.827.827 0 0 1 .033-.067.028.028 0 0 0-.028-.042h-.002a1.13 1.13 0 0 0-.095.011c-.041.008-.063.038-.066.076-.004.041.024.066.059.083Zm-.307-.09a.188.188 0 0 0 .016-.12c-.001-.007.018-.02.029-.023.014-.003.036 0 .041.007a.488.488 0 0 1 .038.066l.01.02a.018.018 0 0 1 .003.01l.001.009.001.008.003.042a.08.08 0 0 1-.088.073c-.046-.007-.077-.047-.054-.092Zm-5.184 1.733c.034.019.054.044.043.082l-.015-.029-.007-.012c-.007-.014-.013-.028-.021-.041Zm15.042-10.291c.004.002.008 0 .012 0l.003-.002-.003-.006a.01.01 0 0 0-.003-.007c-.005-.01-.009-.022-.014-.028-.007-.008-.014-.01-.018-.008-.002 0-.001.015.002.023.007.019.015.027.021.028Zm.022.009c.002-.006-.001-.01-.006-.01l.002.003.002.004.001.002h.001v.001Z"/><path fill="#3A3A3A" fill-rule="evenodd" d="m212.503 19.11-.015-.029.004-.023-.009-.012-.011.003-.023-.026-.107-.171-.213-.343-.214-.343-.214-.343-.076-.362.076-.123-.177-.076.072-.3h-.207l-.115.174-.427-.686-1.71-2.744.073-.5.219.276.147-.938.155-1.187a.47.47 0 0 0 .033.114c.005.01.016.01.022.002a.076.076 0 0 0 .017-.066l-.001-.009a.379.379 0 0 1-.012-.069c-.002-.043.009-.08.048-.095.025-.009.042-.024.056-.057.019-.046.024-.044.067-.01v.001c.014.011.026.011.037-.004l.012-.015.005-.006c.023-.032.047-.063.063-.101l-.009-.025c-.027-.004-.046-.017-.046-.063 0-.013-.006-.024-.012-.036-.006-.012-.013-.025-.012-.041 0-.004 0-.008-.002-.011l-.012-.025a.42.42 0 0 0-.064-.105c-.023-.025-.038-.06-.054-.094a2.747 2.747 0 0 0-.015-.034c-.004-.006-.01-.009-.016-.006-.021.008-.039.02-.039.057l-.001.004c0 .02 0 .042-.002.063a.035.035 0 0 1-.011.022v-.266l-.135-.27.073-.499.679 1.175a.797.797 0 0 0-.062.038c-.018.012-.024.034-.007.054.012.014.019.031-.004.035-.018.002-.036 0-.054-.002l-.012-.002h-.009c-.027-.002-.043.011-.038.046.002.017-.005.032-.013.047-.009.018-.018.036-.004.052.023.026.044.006.065-.013a.118.118 0 0 1 .021-.018.072.072 0 0 1 .062-.01c.039.01.054.044.038.088a.067.067 0 0 1-.01.019l-.009.016c-.018.046-.017.063.019.086a.475.475 0 0 1 .049.042.219.219 0 0 0 .084.06c.048.014.055.013.087-.047l.002-.004.003-.005.014-.025c.01-.015.033-.013.036.004l.005.034c.002.014.004.03.008.044.005.022.017.037.039.033a.05.05 0 0 0 .018-.007l.336.582-.012.012c-.034.037-.069.073-.088.13a.33.33 0 0 0-.019.164h.001v.002l.001.001c.018.055.058.082.096.108l.005.003.018.013a.428.428 0 0 1 .1.082c.004.004.012.005.019.005h.011c.022-.02.034-.006.045.01l.015.015c.007.005.021.001.03-.005.011-.007.012-.022.007-.035-.003-.01-.008-.018-.013-.026a.09.09 0 0 1-.017-.041c-.004-.032-.001-.053.014-.072l.209.362a.017.017 0 0 0-.009.008c-.013.024-.032.03-.052.037l-.016.007c-.02.008-.026.052-.008.064a.358.358 0 0 1 .09.085.32.32 0 0 1 .088.072h.001v.001l.034.03.096.083.245.424c0 .008.004.023.012.049l.015.022.01-.007.074.128c-.006.02-.005.043.004.087.014.061.012.06-.023.03-.012-.01-.017-.006-.014.016l.002.022.001.009c.005.044.011.09.022.14l.016.028c.013-.003.027.006.049.063a.237.237 0 0 0 .022.04.189.189 0 0 1 .025.046l.006.013.017.027c.026.04.051.08.078.109.021.023.044.06.067.098l.022.037c.005.007.009.008.01.003.005-.017.007-.036-.011-.08l-.002-.006c-.009-.025-.02-.05-.029-.077-.01-.029-.007-.054.006-.041l.009.009c.012.01.023.022.035.04.032.05.061.079.09.108a.882.882 0 0 1 .038.039l.375.648v.32l-.122.139-.015.157-.056.115.025.198-.015.157-.035.082.019.075-.033.068.018.088-.015.157-.016.157-.04.328-.02.017.003.03h-.017v.047l.019.03-.005.04-.027.013.017.07-.01.081-.04.329-.039.328.078.148.078.148-.039.35-.019.174-.009.088-.009.009v.01l-.018.011-.009-.014-.012.004-.015-.019Zm-2.071-6.886a.079.079 0 0 0 .006.012.253.253 0 0 1 .024.05l.008.018c.037.084.072.15.102.135.004-.002.014.01.021.02.017.026.03.032.027-.002-.003-.039.008-.049.018-.06l.006-.006c.002-.002.002-.007 0-.014a.105.105 0 0 1 .004-.06l.004-.012c.004-.017-.015-.072-.027-.081a.396.396 0 0 1-.079-.077.288.288 0 0 1-.071-.062h-.001l-.001-.001-.028-.026-.083-.077c-.022-.02-.024 0-.004.055l.055.141.019.047Zm.418.408c.008.012.018.025.027.045.025.055.033.087.027.13 0 .01.006.028.012.036l.002.002.002.003a.28.28 0 0 1 .039.054c.029.051.048.068.068.067.017 0 .034.03.055.088.01.03.017.057.005.06-.002 0-.004 0-.005-.002h-.007c-.013.006-.017.034-.007.063.012.038.026.053.039.068l.003.003c.011.011.018.01.017-.01l-.001-.03-.001-.034c0-.017.013-.005.022.021l.012.035.01.032a.069.069 0 0 0 .013.021c.002.002.004 0 .004-.004a.77.77 0 0 1-.017-.148c-.003-.054-.006-.108-.026-.184a1.126 1.126 0 0 0-.07-.203l-.001-.002h-.001v-.002c-.034-.06-.064-.082-.092-.103l-.004-.002-.014-.01a.433.433 0 0 1-.08-.07c-.005-.005-.008-.003-.011 0l-.004.002c0 .031-.012.017-.024.002l-.014-.015c-.005-.004-.009.005-.01.014a.096.096 0 0 0 .014.045.27.27 0 0 0 .018.028Zm.379 1.022v.001h-.001l-.012.014a.507.507 0 0 1-.035.038c-.011.01-.02-.004-.044-.06a.158.158 0 0 1-.008-.023l-.003-.005a.437.437 0 0 1-.035-.185.663.663 0 0 0 .013-.125c.001-.016.016-.003.024.02.028.09.06.174.098.257.015.032.01.047.005.06v.002l-.001.003-.001.003Zm1.338 1.048c-.003.017-.018.008-.03-.021a1.126 1.126 0 0 0-.061-.127c-.009-.018-.01-.041-.001-.033.018.016.031.035.045.055.01.013.021.032.03.052a.16.16 0 0 1 .016.074h.001Zm.122.52c-.015.003-.029.007-.057-.045l-.002-.001c.016-.002.011-.032-.006-.075l-.017-.038-.009-.02-.001-.004c.009-.008.024.005.039.028.008.012.017.025.024.038l.028.043.002.002.002.003c.009.013.018.025.021.046.001.012-.003.023-.007.022a.033.033 0 0 0-.017 0Zm-.839-.71-.001-.002v-.002.003l.001.001Zm.346-.18-.007-.009a.101.101 0 0 1-.01-.022h.001l.002-.003c.003-.002.006-.004.01-.002.006.003.016.017.019.033.005.027-.005.018-.015.004Zm-1.314-.627.002-.007.002.013-.004-.006Zm.95.755.005.013c.004.014.012.023.015.018v-.002h.001a.024.024 0 0 1 .003-.003c.004-.002.001-.02-.006-.033l-.02-.038-.009.014.011.03Zm-.838-1.25.001-.003c.001-.004.005-.01.01-.018.013-.022.033-.056.02-.085a.552.552 0 0 0-.06-.095c-.028-.038-.056-.075-.072-.126-.008-.023-.044-.038-.044-.023-.001.024-.016.017-.03.01-.015-.006-.028-.013-.032.005a.326.326 0 0 0 .02.162.094.094 0 0 0 .027.022c.012.007.023.014.025.019.024.057.055.103.066.092.008-.008.021.006.034.02.014.014.027.028.035.02Zm1.006.948c.012-.005.013-.026-.006-.067-.009-.02-.013-.04-.017-.06-.005-.026-.01-.05-.024-.065-.022-.025-.021.005-.02.035l-.001.027c-.001.023-.009.031-.021.031-.02 0-.043-.038-.058-.097l-.004-.024a.165.165 0 0 1-.004-.023c-.015-.061-.024-.081-.05-.1a.292.292 0 0 1-.04-.036c-.023-.022-.045-.044-.064-.047-.027-.004-.03 0-.014.082l.001.004.001.007.006.035c.004.022-.007.025-.017.006l-.018-.04-.024-.051c-.013-.026-.025-.04-.033-.03-.005.008-.005.022-.001.045l.004.017.012.038a.17.17 0 0 1 .016.072c-.007.034-.02.057-.049.032a.064.064 0 0 0-.033-.017c-.019-.005-.039-.01-.068-.066-.006-.011-.018-.011-.023-.005a.094.094 0 0 0-.011.024l-.007.016c-.01.021-.03.009-.054-.023-.007-.01-.017-.023-.019-.039-.002-.01.001-.016.003-.021l.001-.002v-.001h.001a.006.006 0 0 1 .004-.005c.001 0 .003-.002.003-.005a.095.095 0 0 0-.003-.027.067.067 0 0 0-.007-.014l-.023-.017c-.023-.019-.046-.037-.063-.035-.014.001-.014.03.001.076.008.03.018.06.028.09l.009.03a.05.05 0 0 0 .012.021c.052.03.107.089.164.157.035.042.065.055.077.027.011-.025.027-.02.046-.014h.003a.392.392 0 0 0 .033.008.236.236 0 0 1 .057.017c.025.01.04.01.022-.067a.066.066 0 0 1 0-.03v-.004c.002-.014.022-.006.029.014l.003.007a.999.999 0 0 0 .042.1c.011.024.007.04.004.05-.007.015-.01.032.001.072l.002.006.001.003c.006.02.011.04.021.053.007.009.009.003.011-.003l.002-.006c.018-.029.045 0 .071.08l.007.026a.108.108 0 0 0 .006.024l.011.031h.001l.001.004.003.005c.002.005.003.01.006.012.014.02.025.02.032.012a.254.254 0 0 0 .03-.047c.008-.014-.001-.038-.012-.062a.055.055 0 0 1-.007-.028l.002-.013.002-.008a1.25 1.25 0 0 0 .008-.069.097.097 0 0 0-.023-.068c-.012-.012-.023-.032-.015-.043.006-.008.015-.01.024-.013l.005-.002h.003v-.001H212Zm-2.253-4.144c-.01-.002-.022-.003-.032-.007-.008-.003-.023.003-.029.011-.01.015-.003.027.004.039l.002.002v.001l.001.002a.307.307 0 0 1 .021.04l.018.036c.012.022.029.036.053.035v-.002a.103.103 0 0 1-.002-.018l-.003-.032c0-.035.012-.057.043-.051l-.002-.002c-.013-.045-.043-.05-.074-.054Zm.171 1.358-.012-.021h-.038c-.049.011-.049.012-.053.062l.009-.003h.009l.012.002h.001a.178.178 0 0 0 .027.003c.03.001.036-.002.045-.043Zm.102-.553-.006-.009c-.009-.014-.02-.024-.031-.004-.007.012.002.025.011.03a.034.034 0 0 0 .02.002h.008a.03.03 0 0 0-.002-.018Z" clip-rule="evenodd"/><path fill="#3A3A3A" d="M211.069 12.135c-.006.003-.005.006.004.009l-.001-.002-.001-.004h-.001v-.002l-.001-.001Zm.036.015-.022-.004h-.008v.005a.012.012 0 0 1 .001.005c.001.01.002.019.006.025.006.008.018.012.028.013.003 0 .012-.01.013-.016.002-.015-.007-.024-.018-.028Zm-30.064 18.2a.031.031 0 0 0-.024.013l.002.003a.91.91 0 0 1-.287.26c-.185.116-.368.237-.55.357l-.218.145a.028.028 0 0 0-.014.018c-.019.073-.081.102-.142.13-.159.073-.317.145-.476.216-.012.005-.034.003-.042-.005-.009-.007-.013-.034-.006-.041a.41.41 0 0 0 .11-.258c.003-.05.039-.087.075-.118l.092-.076.056-.044c.036-.03.046-.066.019-.105-.036-.051-.018-.09.024-.123.068-.052.099-.108.08-.204-.019-.096.057-.108.293-.112l.024-.051c-.059-.076-.033-.137-.008-.197a.285.285 0 0 0 .028-.093c.002-.023-.002-.053-.016-.068-.024-.025-.059-.02-.086.001l-.036.026a.267.267 0 0 0-.089.084.692.692 0 0 1-.139.173 1.787 1.787 0 0 0-.062.064l-.018.02c-.074.082-.148.163-.188.273a.364.364 0 0 1-.194.205.293.293 0 0 1-.114.02c-.033.002-.059-.018-.07-.053a.07.07 0 0 1 .032-.083c.034-.019.07-.035.105-.05a1.5 1.5 0 0 0 .089-.042l.01-.005c.041-.021.096-.05.091-.09-.016-.14.071-.214.154-.284l.053-.045.108-.108a1.57 1.57 0 0 1 .282-.245c.037-.022.077-.034.105.008.052.08.105.047.161.008.085-.059.142-.133.111-.243-.018-.064.004-.112.043-.154.076-.083.154-.162.234-.242a.88.88 0 0 1 .064-.058c.02-.018.041-.035.059-.054.019-.018.022-.047.002-.064-.017-.013-.047-.024-.064-.018-.027.011-.053.026-.079.04-.023.012-.045.025-.069.035-.018.008-.049.008-.064-.003-.021-.016-.012-.046.007-.062a5.372 5.372 0 0 1 .233-.188c.067-.05.134-.099.18-.174a.212.212 0 0 1 .052-.048l.249-.177.2-.143a.28.28 0 0 1 .079-.04.03.03 0 0 1 .038.039c-.026.076-.086.127-.145.178a3.946 3.946 0 0 0-.039.034c-.07.063-.093.117-.059.132.061.029.112-.004.15-.044l.081-.083c.113-.115.226-.229.296-.381.071-.156.196-.273.321-.385a.082.082 0 0 1 .065-.015c.025.006.028.036.018.058-.023.052-.015.083.034.12.074.058.074.096.008.152-.09.076-.183.148-.277.22l-.1.078-.033.025c-.065.05-.13.1-.175.172-.012.021-.023.044-.008.066a.042.042 0 0 0 .062.011c.07-.055.147-.1.223-.146.136-.08.272-.161.369-.296.028-.037.068-.064.108-.092a.82.82 0 0 0 .087-.063c.026-.018.053-.038.059-.061.034-.144.14-.217.246-.289l.074-.052a2.522 2.522 0 0 1 .304-.19c.013-.007.029-.005.045-.004h.009a.033.033 0 0 0 .024-.009l.047-.047.048-.047a.04.04 0 0 0 .007-.01.073.073 0 0 0 .005-.015c.006-.016.011-.032.022-.04.013-.01.032-.012.049-.014a.232.232 0 0 0 .019-.003c.166-.03.19-.08.106-.217a.06.06 0 0 0-.01-.01l-.007-.008c-.031-.038-.022-.073.013-.103.061-.053.122-.104.211-.097.018.002.037 0 .056-.003a.485.485 0 0 1 .038-.003c.15-.005.267-.048.353-.197.042-.073.11-.13.178-.188a2.02 2.02 0 0 0 .091-.081l.021-.02c.027-.026.056-.053.078-.084a.482.482 0 0 1 .251-.173.883.883 0 0 0 .364-.222 1.12 1.12 0 0 1 .275-.189 1.68 1.68 0 0 0 .261-.18l.014-.01c.177-.139.363-.26.575-.337a.591.591 0 0 0 .202-.126.368.368 0 0 1 .352-.094l.015-.01c.018-.079.08-.118.144-.144.065-.027.086-.072.092-.134.002-.022.028-.034.047-.023.054.033.103.064.122.129a.03.03 0 0 0 .006.011l.022.024c.017.02.035.04.054.058a3.085 3.085 0 0 1 .55.678c.085.07.165.144.133.275a.072.072 0 0 0 .003.024l.004.012c-.093-.007-.089.043-.086.092.002.025.004.05-.007.068a.087.087 0 0 1-.032.034 1.132 1.132 0 0 0-.301.223c-.035.032-.069.064-.104.094a.287.287 0 0 1-.053.033.37.37 0 0 0-.028.015c-.01.03-.029.044-.061.03h-.002a.936.936 0 0 0-.18.119c-.069.053-.138.106-.222.135l-.004.002a.143.143 0 0 1-.119.061l-.003.002c-.009.025-.025.036-.051.032a.051.051 0 0 1-.028.017.035.035 0 0 0-.014.006l-.09.071c-.256.202-.511.404-.801.559a2.257 2.257 0 0 0-.159.094 1.688 1.688 0 0 1-.257.141.33.33 0 0 0-.111.089c-.121.129-.274.205-.427.281l-.033.017c-.04.02-.076.013-.114.003-.045-.012-.084.004-.123.022a.03.03 0 0 0-.017.023c-.017.078-.07.127-.143.156a3.48 3.48 0 0 1-.159.06l-.055.02a.028.028 0 0 0-.01.006c-.02.019-.043.034-.065.05-.05.033-.1.066-.125.139-.031.088-.128.133-.214.173l-.026.013c-.188.09-.364.197-.541.305l-.155.094a.025.025 0 0 0-.01.01.08.08 0 0 0-.008.014c-.008.014-.016.03-.029.037l-.399.246-.489.301a.02.02 0 0 0-.008.01.21.21 0 0 1-.153.098.032.032 0 0 0-.023.016.19.19 0 0 1-.084.061l-.019.01c-.114.057-.212.138-.31.218-.037.031-.074.062-.113.091l-.007.006c-.036.028-.074.058-.12.03-.1-.058-.182-.018-.264.04l-.003.002c-.027.019-.054.038-.088.042Z"/><path fill="#fff" d="m195.739 37.303.003.003a.046.046 0 0 0-.021-.02l.013.013a.023.023 0 0 0 .005.004Zm.03.022a.05.05 0 0 0-.027-.02l.005.005c.009.009.018.017.02.016l.002-.001Zm-3.341 9.729a.526.526 0 0 1-.086.246h-.001c-.012.022-.043.02-.053-.004-.053-.133-.04-.167.093-.268a.03.03 0 0 1 .047.026Z"/><path fill="#fff" fill-rule="evenodd" d="M213.574 43.901c-.092-.074-.09-.169-.049-.27.043-.104.027-.184-.057-.244l-.003-.002-.004-.003c-.031-.021-.053-.037-.046-.08a.9.9 0 0 0 .011-.138c0-.022-.01-.049-.037-.048a.097.097 0 0 0-.061.022c-.013.013-.022.03-.031.046l-.019.03c-.013.018-.029.038-.056.026-.035-.017-.031-.046-.017-.076l.008-.014.007-.012c.012-.018.024-.037.024-.056.005-.135.081-.19.203-.202.013-.002.025-.014.035-.023l.002-.002c.004-.004.006-.015.005-.022-.001-.006-.007-.015-.013-.017-.028-.008-.051.004-.074.016l-.031.014c-.085.028-.155-.01-.173-.095a.723.723 0 0 1-.012-.104l-.005-.057c-.007-.055-.019-.106-.076-.133-.056-.027-.068-.078-.062-.137l.003-.03.003-.02a2.08 2.08 0 0 0 .014-.157c.003-.076-.035-.119-.108-.118-.095.001-.19.006-.284.01l-.103.005h-.009l-.02.002a.205.205 0 0 1-.061 0 .445.445 0 0 1-.129-.039c-.028-.014-.028-.043-.029-.072a.355.355 0 0 0-.002-.033l-.001-.002v-.005l-.004-.016c-.024-.062-.29-.265-.357-.267-.064-.003-.121.018-.151.082-.02.043-.041.086-.084.107a.186.186 0 0 1-.059.013c-.004 0-.009 0-.013.002h-.006l-.007.001a12.305 12.305 0 0 0-.118.005c-.058-.008-.073-.045-.058-.096.014-.05.032-.103.104-.086 0-.005.002-.01.003-.014l.003-.009.001-.003c.005-.021.011-.042.014-.063.007-.058-.026-.09-.078-.077a.09.09 0 0 0-.022.008h-.001c-.048.025-.098.05-.149.013-.05-.037-.092-.081-.092-.151 0-.028-.005-.055-.009-.083-.011-.061-.021-.123.023-.186.02-.029.021-.074.022-.116l.001-.019c.001-.03-.003-.072-.021-.086a.67.67 0 0 1-.17-.227c-.021-.038-.041-.075-.064-.11-.024-.036-.052-.053-.082 0-.021.036-.055.025-.071-.006a.428.428 0 0 1-.052-.199c.001-.029-.001-.058-.002-.087a.614.614 0 0 1-.003-.074c0-.09-.017-.157-.12-.194-.089-.032-.137-.103-.118-.198.004-.019-.009-.037-.028-.037-.055 0-.096-.035-.125-.083a.357.357 0 0 0-.035-.045c-.036-.04-.072-.082-.037-.15-.054.017-.077-.009-.083-.06-.1-.036-.161-.098-.154-.206a.028.028 0 0 0-.02-.03.198.198 0 0 1-.07-.045c-.02-.016-.039-.032-.063-.041-.02-.008-.024-.028-.029-.051v-.003a.648.648 0 0 0-.14-.294c-.037-.04-.028-.084.015-.118l-.007-.013c-.126.016-.153.008-.154-.078a.37.37 0 0 0-.012-.08c-.01-.04-.02-.08-.008-.122a.033.033 0 0 0-.005-.027 3.9 3.9 0 0 0-.422-.497c-.1-.096-.188-.202-.277-.308a5.976 5.976 0 0 0-.131-.155 20.04 20.04 0 0 1-.37-.436 22.654 22.654 0 0 0-.158-.19.03.03 0 0 0-.015-.01c-.154-.041-.256-.152-.356-.263-.035-.037-.069-.075-.105-.11a.033.033 0 0 1-.007-.01c-.059-.15-.191-.205-.321-.258l-.003-.001a.03.03 0 0 0-.033.007c-.029.03-.037.066-.046.102a.228.228 0 0 1-.024.074c-.014.024-.076.027-.077.003-.003-.074-.055-.099-.106-.124-.043-.02-.086-.041-.103-.09-.01-.029-.056-.035-.096-.04-.01 0-.02-.002-.029-.003a.11.11 0 0 0-.048.006.153.153 0 0 1-.037.008c-.026 0-.038-.03-.022-.05a.357.357 0 0 0 .058-.178c.008-.054.016-.109.044-.157.003-.006.005-.014.003-.021l-.014-.06c-.014-.052-.028-.104-.025-.155.008-.103-.033-.173-.101-.236-.028-.007-.039-.025-.037-.054-.04-.032-.04-.076-.031-.121h-.002a.332.332 0 0 1-.101-.062.314.314 0 0 0-.112-.065c-.051-.014-.07-.059-.089-.103a.345.345 0 0 0-.028-.057c-.024-.035-.004-.073.015-.107.02-.035.026-.07.002-.107-.03-.045-.007-.057.036-.076.059-.027.062-.08.021-.125a.192.192 0 0 0-.094-.06c-.044-.012-.068-.047-.04-.084.037-.048.036-.1.035-.153v-.042a.031.031 0 0 0-.02-.03c-.087-.032-.131.023-.169.101-.009.02-.035.036-.057.02a.118.118 0 0 1-.036-.054c-.007-.013-.011-.034-.005-.044.067-.113.018-.188-.075-.251a.214.214 0 0 1-.1-.196c.001-.054-.017-.101-.035-.15a.931.931 0 0 1-.026-.072c-.009-.036-.026-.073-.062-.092-.112-.058-.172-.165-.229-.267l-.006-.012-.011-.017c-.017-.032-.04-.06-.062-.09a.395.395 0 0 1-.097-.185c-.004-.026-.034-.05-.06-.072l-.005-.004-.009-.007a.375.375 0 0 0-.046-.032c-.024-.015-.048-.03-.064-.05-.052-.07-.11-.097-.196-.078-.037.008-.059-.03-.042-.059.096-.156.034-.277-.081-.384a.176.176 0 0 1-.054-.095c-.024-.094-.032-.096-.122-.046a.387.387 0 0 1-.119.043.03.03 0 0 1-.034-.025c-.031-.164-.051-.194-.155-.263l-.005-.003c-.024-.016-.054-.037-.077-.032-.128.024-.19-.056-.251-.135a.97.97 0 0 0-.05-.06.266.266 0 0 1-.033-.05.236.236 0 0 0-.044-.063c-.076-.068-.111-.142-.044-.242.019-.027.013-.075.009-.112-.009-.079-.062-.106-.148-.076a.147.147 0 0 0-.019.009c-.021.01-.043.022-.056-.009-.011-.025.007-.035.026-.044.009-.005.018-.01.024-.015.03-.032.031-.07.009-.106-.078-.117-.091-.144-.092-.198l.001-.04a.03.03 0 0 0-.024-.031c-.082-.02-.138-.078-.194-.136-.028-.028-.055-.056-.085-.08l-.034-.026a.838.838 0 0 0-.146-.1c-.076-.038-.143-.084-.144-.186 0-.063-.036-.109-.072-.155a2.813 2.813 0 0 1-.033-.044.34.34 0 0 0-.04-.049c-.036-.039-.072-.079-.066-.142-.029-.005-.042-.023-.039-.052-.047-.008-.066-.038-.07-.084l-.014-.014c-.036-.008-.06-.026-.071-.06a.037.037 0 0 0-.013-.016c-.097-.06-.19-.125-.227-.24-.004-.012-.012-.02-.022-.022-.046-.009-.078-.04-.109-.072l-.023-.022c-.145-.135-.275-.282-.406-.43l-.141-.158-.003-.003c-.06-.066-.11-.121-.206-.06-.032.021-.074.014-.111-.002-.029-.012-.056-.03-.058-.064-.002-.033.02-.037.043-.042.006 0 .013-.002.02-.004.073-.024.082-.043.032-.084-.047-.037-.07-.076-.065-.128a.03.03 0 0 0-.024-.033.239.239 0 0 1-.105-.068l-.002-.002a.106.106 0 0 1-.019-.026c-.015-.023-.029-.047-.063-.03-.015.007-.024.024-.033.042-.006.01-.011.021-.018.03-.021.027-.056.033-.088-.018a.034.034 0 0 1-.001-.03.33.33 0 0 1 .069-.072.68.68 0 0 0 .009-.008l.004-.003a.031.031 0 0 0 .003-.042c-.358-.468-.421-1.181-1.176-.651-1.159 1.171-.196 1.229-.074 1.357.008.002.015.008.023.014.016.012.033.025.051.007.072-.071.154-.062.239-.051h.001l.018.002c.113.013.227.025.341.031a.25.25 0 0 1 .198.097c.019.025.043.047.067.069.054.049.107.098.11.184 0 .003 0 .006.002.008l.002.006.002.005.004.013c.036.1.071.198.171.26.05.031.051.083.051.135 0 .019.001.037.004.055.001.01.009.018.018.022.075.034.118.1.152.172.081.168.142.343.129.54v.006l.003.015c.024.13.047.255-.03.367-.02.03-.016.065-.008.098a.026.026 0 0 0 .015.02c.059.035.056.088.033.149-.02.054-.038.107.057.1.031-.002.052.03.053.064 0 .05.023.086.048.127.067.107.093.22.067.353-.026.139 0 .147.168.16l.014-.002c.091-.04.172-.012.254.017l.002.001h.002l.029.017.03.016h.001c.053.029.105.057.157.087.053.03.071.064.043.13-.033.074-.01.123.051.15a.51.51 0 0 0 .074.025.569.569 0 0 1 .076.026c.049.022.09.057.105.113.002.014.006.027.009.04.007.03.014.061.009.09-.018.108.03.167.12.207.018.008.034.022.05.035a.205.205 0 0 0 .055.037l.039-.02a.433.433 0 0 1 .159-.24c.058-.041.11-.04.165.007.016.014.03.03.044.047.006.007.011.014.018.02a.11.11 0 0 0 .08.038.144.144 0 0 0 .054-.013c.033-.012.067-.024.093.013.02.029.029.065.039.1a2.666 2.666 0 0 0 .014.05l.003.01.003.01h.001c.009.03.02.06.032.09.045.1.068.204.048.314a.646.646 0 0 0 .013.228.03.03 0 0 1-.017.033.824.824 0 0 0-.168.113 1.658 1.658 0 0 1-.08.06l-.001.001h-.001l-.032.02c-.027.016-.052.033-.08.048a.121.121 0 0 1-.126 0 .03.03 0 0 0-.033 0 .293.293 0 0 0-.017.011l-.005.004a.577.577 0 0 0-.087.067.25.25 0 0 1-.176.085c-.088.003-.148.05-.181.131a.034.034 0 0 0-.002.018c.025.138-.011.267-.046.396a1.551 1.551 0 0 0-.047.2c-.005.034-.028.08-.057.095-.059.033-.091.086-.124.139a.712.712 0 0 1-.052.077.031.031 0 0 0-.007.021.069.069 0 0 1-.034.06.029.029 0 0 0-.012.03l.001.006c.01.052.02.104-.029.145-.053.046-.071.118-.048.167.024.055.016.105.008.155-.003.022-.007.043-.008.065a.03.03 0 0 0 .02.028c.034.013.056.034.07.08.055.177.107.209.278.206a.758.758 0 0 0 .289-.055l.078-.029c.031-.011.062-.022.092-.035.063-.029.113-.024.165.026a.777.777 0 0 0 .109.081.9.9 0 0 1 .074.052c.126.1.24.065.358.002a.643.643 0 0 0 .072-.048c.02-.014.039-.029.06-.041l.005-.003.004-.002a.333.333 0 0 1 .115-.05c.176-.03.351-.055.527-.08h.001l.097-.015.066-.01a.04.04 0 0 0 .012-.004c.065-.043.132-.028.2-.014l.024.005c.035-.026.075-.034.086.017.011.05.025.118.002.157-.051.088-.038.138.058.187a.032.032 0 0 1 .017.03c-.005.08.039.129.084.177.019.02.037.04.052.064.036.053.081.035.13-.025l.007-.007a.395.395 0 0 1 .31-.063.222.222 0 0 1 .178.16c.023.066.03.135.023.205a1.36 1.36 0 0 0-.003.18v.05c.001.08.002.152.06.213a.25.25 0 0 1 .053.131.73.73 0 0 0 .151.324.409.409 0 0 0 .312.162c.18.01.333.097.484.184l.002.001a.234.234 0 0 1 .111.114l.022.058v.001c.056.144.111.288.118.449a.915.915 0 0 1-.312.76.908.908 0 0 0-.227.285l-.005.011c-.015.031-.03.062-.039.095-.014.047-.006.092.04.12l.002.002.004.002.005.003c.029.018.057.035.071.07a.167.167 0 0 1-.011.154c-.028.047-.067.036-.107.025l-.008-.002-.007-.002-.012-.003c-.038-.01-.077-.019-.106-.048a.028.028 0 0 0-.01-.007c-.057-.02-.113-.035-.156.03a1.029 1.029 0 0 1-.084.11c-.049.057-.104.08-.182.049-.049-.02-.038.002-.029.022l.004.009a.03.03 0 0 1 .004.011c.001.008.004.015.006.023 1.888 2.274 3.929 4.542 5.728 6.784.041.029.085.03.127 0a.725.725 0 0 0 .053-.044c.04-.035.06.071.114.055a.109.109 0 0 1 .103-.03c.049.009.099.014.149.019a.978.978 0 0 1 .231.041c.033.012.07.012.107.012h.052l.005-.002c.076-.032.132-.075.158-.169a4.82 4.82 0 0 1 .124-.367l.066-.183.001-.004v-.004c.007-.203.079-.385.152-.568h.001c.033-.085.067-.17.094-.256.021-.068.044-.136.067-.204.02-.056.039-.112.057-.169.036-.11.081-.218.126-.325l.051-.124c.029-.07.034-.132-.033-.187h.003Zm-10.417-9.124c-.04-.014-.053-.046-.047-.087.008-.052.05-.091.088-.079.039.013.057.045.051.088-.007.048-.05.084-.092.078Zm1.252-2.496c-.008.005-.019.006-.03.007-.004 0-.009 0-.013.002l-.005-.002-.009-.003c-.011-.003-.021-.006-.026-.013a6.106 6.106 0 0 1-.151-.247.04.04 0 0 1 .021-.057.049.049 0 0 1 .041.003l.026.02.018.016c.034.03.068.06.123.07.075.013.075.157.005.204Zm.218.792a.154.154 0 0 1-.13-.176c.005-.029.029-.052.069-.06l.014.006c.014.005.029.012.033.023.022.055.038.113.053.17.008.033-.019.04-.039.037Zm.796.183a.26.26 0 0 1-.176.008c-.04-.01-.066-.04-.062-.082.003-.047.039-.06.08-.056a.488.488 0 0 1 .068.01h.003l.011.003c.004 0 .008.002.011.003h.001l.059.016c.022.008.041.02.041.048-.001.025-.015.04-.036.051Zm1.436 6.452a.092.092 0 0 0-.009.009c-.008.008-.015.015-.022.015-.063.002-.107-.03-.133-.084-.009-.02.007-.044.029-.042a.165.165 0 0 1 .138.079c.002.003.001.009-.001.014v.002l-.001.002-.001.005Zm.235-.613c-.036.08-.103.122-.175.116l-.008-.012c-.007-.01-.013-.02-.011-.022a1.91 1.91 0 0 1 .113-.14c.021-.023.053-.035.076-.006.011.014.013.046.005.064Zm1.337-1.28c-.006.01-.026.018-.038.017-.012-.002-.03-.015-.032-.026-.009-.036-.019-.074-.018-.111.002-.053.05-.094.087-.082.031.01.044.042.036.111l-.001.006h-.001v.002l-.001.004-.003.006c-.007.02-.016.047-.029.073Zm.843 1.774c-.022.038-.052.022-.081.007l-.007-.004-.012-.006h-.002l-.003-.002h-.003l-.002-.001-.005-.002c-.046-.01-.096-.034-.107-.08-.002-.005-.001-.01 0-.016.015-.054.045-.085.091-.079.04.006.065.034.087.064l.013.016c.024.032.052.067.031.102Zm.193.121c-.016.028-.036.05-.07.052-.025-.004-.039-.021-.04-.046-.005-.048.024-.069.066-.073.014 0 .033 0 .044.008.023.017.012.04 0 .06Zm.489-.252c-.005.011-.021.023-.032.024a.795.795 0 0 1-.079 0l-.027-.002c-.05-.005-.093-.016-.12-.059-.022-.034-.028-.07.001-.103.025-.03.061-.047.097-.022.055.038.106.08.157.122.008.006.008.03.003.04Zm1.321 2.725c-.054 0-.097-.051-.094-.107.001-.046.042-.093.081-.096.049-.003.096.068.091.133-.009.046-.037.07-.078.07Zm1.297.675c-.06.022-.116.003-.125-.058-.007-.044.033-.084.084-.085.064.004.067.06.058.12a.028.028 0 0 1-.017.023Z" clip-rule="evenodd"/><path fill="#fff" d="M194.445 38.848c.02.03.048.038.078.015.019-.015.031-.043.017-.06a.591.591 0 0 0-.058-.052.03.03 0 0 0-.048.019c-.004.026-.005.053.012.078h-.001Zm-.005-.13-.002-.002v-.002h.002v.004Z"/><path fill="#fff" fill-rule="evenodd" d="m194.625 31.669-.005.01-.003.01-.004.009a.338.338 0 0 1-.024.054c-.005.008-.028.011-.039.007a.05.05 0 0 1-.029-.03.265.265 0 0 1 .025-.179c.051-.105.024-.196-.015-.305a1.813 1.813 0 0 0-.222-.415l-.004-.007a.414.414 0 0 0-.227-.268 2.575 2.575 0 0 1-.142-.073c-.095-.052-.105-.111-.037-.205a.169.169 0 0 1 .025-.026c.008-.007.017-.014.023-.023.022-.027.023-.06.002-.085a1.097 1.097 0 0 1-.172-.296 2.043 2.043 0 0 0-.093-.187c-.469-1.592.35-2.673-2.049 1.357-.117.198-.102.397-.006.596l.03.06c.018.035.037.07.051.105.007.017 0 .05-.013.063-.014.014-.043.02-.063.017a.413.413 0 0 1-.184-.1l-.008-.005a.029.029 0 0 0-.038.001c-.028.026-.042.058-.057.091l-.003.008-.045.102-.061.138c-.197.45-.394.899-.614 1.338l-.001.001c-.218.502-.429 1.008-.64 1.514h-.001v.001l-.271.648c-.063.152-.128.303-.194.454v.001l-.001.001-.056.13-.038.089-.001.006a.431.431 0 0 1-.008.035c-.016.076-.033.152.021.224.054.123.05.132-.067.202-.05.017-.06.057-.056.104.029.041.037.1.01.13a.873.873 0 0 0-.119.187.793.793 0 0 1-.146.213l-.013.007a.026.026 0 0 0-.005.002h-.003l-.005.044c-.004.03-.006.06-.019.087-.042.085-.088.168-.134.252-.053.098-.107.197-.155.299l-.002.018c.008.048 0 .089-.041.115a.026.026 0 0 0-.004.008l-.008.017-.006.013-.004.007-.004.01c-.018.038-.034.077-.052.117l-.038.086c-.076.17-.151.34-.223.51a3.92 3.92 0 0 1-.286.572.62.62 0 0 0-.053.108.03.03 0 0 0 .001.028l.003.006a.093.093 0 0 1 .016.042 1.88 1.88 0 0 0 .038.367c.01.057-.019.069-.057.069a.03.03 0 0 0-.03.027l-.004.043-.003.042a.027.027 0 0 0 .008.023.19.19 0 0 1 .037.214.647.647 0 0 0-.038.14.818.818 0 0 1-.021.098l.003.02.001.004.003.018c.001.01.008.018.018.022l.021.009.024.01.009.004.007.003.005.002a.05.05 0 0 1 .009.005l.009.009a.052.052 0 0 1 .008.007l.012.01.008.007.012.01.001.002c.038.035.077.07.12.1.102.072.143.17.166.29.035.177-.013.337-.061.498a2.132 2.132 0 0 0-.051.19.032.032 0 0 1-.015.02c-.079.045-.092.118-.106.192a1.18 1.18 0 0 1-.013.06c-.003.014-.004.029-.006.044-.002.032-.005.064-.03.09a.03.03 0 0 1-.035.004l-.037-.023c-.386-.287-.769-.223-1.049.165a2.561 2.561 0 0 0-.22.398c-.024.05-.048.101-.073.15a1.175 1.175 0 0 1-.229.342.643.643 0 0 0-.197.357 1.15 1.15 0 0 1-.147.362c-.101.179-.21.353-.32.527-.127.203-.254.406-.37.617a2.366 2.366 0 0 0-.168.43l-.035.108a.374.374 0 0 0-.008.23c.034.1.076.197.118.295l.036.084c.006.013.02.024.033.032.08.047.104.124.118.212a.636.636 0 0 0 .509.56c.07.02.141.04.192.1l.006.008-.019-.029c-.014-.019-.007-.04.016-.046.124-.032.245-.066.343-.154a1.8 1.8 0 0 0 .373-.433c.084-.145.182-.275.298-.395a.027.027 0 0 0 .007-.017l.005-.03c.009-.054.017-.107-.054-.141-.038-.02-.019-.052.008-.071a.152.152 0 0 0 .065-.14l-.004.002c-.06-.051-.059-.067.005-.091h.001c.008-.082.017-.088.127-.078.028-.034.039-.069 0-.104-.042-.021-.077-.05-.08-.103a.18.18 0 0 1 .06-.144c.136-.129.316-.127.459.038a.029.029 0 0 0 .045-.002c.031-.044.097-.017.079.035l-.007.017c-.014.037-.028.071.011.108.026.026.025.06.023.095v.014c0 .052-.017.09-.073.1a.972.972 0 0 1-.046.007l-.044.006-.009.001-.011.001c-.019.002-.038.004-.042.012a.416.416 0 0 1-.157.171c-.047.036-.095.07-.129.12a.181.181 0 0 0-.018.041h-.001a.474.474 0 0 1-.003.01.033.033 0 0 0 .001.025c.027.047.071.054.121.04l.136-.04h.001l.045-.014h.001l.001-.001.002-.001.002-.002a.007.007 0 0 0 .006-.004c.044-.046.102-.069.16-.051.101.03.157-.028.215-.09.009-.008.016-.02.024-.03.01-.016.02-.03.033-.04.055-.04.081-.08.06-.154-.01-.033-.003-.07.003-.108l.006-.043a.032.032 0 0 0-.003-.017c-.032-.063-.021-.122.024-.179a.397.397 0 0 1 .161-.113h.002l.039-.014.036-.012.047-.017.039-.013.026-.009.006-.002.001-.001h.001l.001-.002a.274.274 0 0 1 .02-.015c.054-.04.106-.08.087-.174-.005-.027-.005-.056-.005-.085 0-.028 0-.056-.004-.084l-.001-.001v-.005l.002-.027c.008-.097.015-.193.106-.26a.115.115 0 0 0 .041-.077c-.004-.166.084-.27.211-.356.063-.043.021-.073-.025-.097a.023.023 0 0 1-.007-.003l-.004-.005-.02-.03v-.002l-.004-.005-.004-.006c-.03-.023-.028-.057-.026-.09.002-.035.003-.068-.031-.087-.038-.02-.081-.03-.124-.042l-.059-.016c-.049-.014-.088-.045-.065-.098a.879.879 0 0 0 .039-.123c.025-.1.051-.2.172-.278a.031.031 0 0 0 .001-.05c-.196-.127-.299-.248-.241-.403.036-.097.131-.123.193-.044l.052.066c.103.126.205.253.216.431.001.014.01.028.017.04l.002.003a.028.028 0 0 0 .025.015c.021-.001.033-.015.044-.028a.199.199 0 0 1 .015-.015c.137-.116.291-.093.424-.016.157.09.309.198.379.383a.18.18 0 0 0 .021.014.031.031 0 0 0-.032.02.796.796 0 0 1-.12.19l-.004.006c-.028.036-.037.056-.029.11.012.09.011.197-.102.246-.049.02-.069.068-.054.134l-.014.033c-.055.03-.082.083-.108.135a.455.455 0 0 1-.063.1c-.039.043-.031.098.023.16.045.05.081.002.103-.028l.003-.004c.042-.057.091-.077.151-.063a.03.03 0 0 1 .024.031l-.001.02c-.001.048-.003.095-.038.132a.792.792 0 0 0-.128.209.792.792 0 0 1-.132.212.03.03 0 0 1-.025.01c-.157-.019-.233.077-.286.197-.025.088-.095.133-.17.167-.061.028-.075.072-.077.124 0 .025-.03.038-.048.022-.013-.011-.024-.026-.036-.042a.03.03 0 0 0-.005-.007.022.022 0 0 1-.004-.006l-.002-.002-.002-.003a1.647 1.647 0 0 1-.258-.482c-.007-.022.01-.043.032-.04.015.002.029.004.043.002.08-.006.125.042.17.093.016.016.044.01.05-.011.006-.019.008-.039.011-.06.006-.05.012-.101.067-.135a.24.24 0 0 0 .115-.136c.013-.046.05-.051.092-.037l.006.003.004.001.004.002c.021.008.042.017.066.017a.028.028 0 0 0 .02-.007c.027-.028.03-.069.002-.087-.096-.06-.186-.11-.314-.082-.032.007-.062.02-.093.032-.05.02-.1.04-.154.038a.03.03 0 0 0-.031.031.888.888 0 0 1 .001.052c0 .029 0 .058.005.084.019.095-.033.134-.088.175-.004.003-.009.006-.012.01a.038.038 0 0 0-.007.005.038.038 0 0 1-.009.004l-.003.001-.097.034c-.027.009-.027.048.001.057.02.006.04.013.059.022.052.025.055.078.008.104-.043.024-.088.047-.132.07l-.044.022-.022.011-.007.006-.006.005-.025.022-.013.01a.028.028 0 0 1-.021.007l-.019-.001-.017-.001h-.005a.03.03 0 0 0-.031.025l-.004.023a.24.24 0 0 0-.003.11c.021.074-.005.113-.059.153a.12.12 0 0 0-.034.04.196.196 0 0 1-.024.03c-.058.062-.115.12-.215.09-.06-.019-.12.006-.165.056h.02c.015 0 .03 0 .044-.005.095-.027.158.006.196.09a.03.03 0 0 0 .025.018l.014.001.015.001.034.003.042.002.021.002-.003.018-.003.011-.017-.03-.042-.003a1.02 1.02 0 0 1-.039-.003l-.021-.001a.03.03 0 0 0-.028.017l-.029.059a.03.03 0 0 1-.028.016c-.142-.007-.151.002-.206.127-.021.044-.009.075.041.08.051.005.062.038.055.08-.011.063-.037.117-.107.133a1.192 1.192 0 0 0-.087.026c-.066.022-.116.012-.135-.03-.017-.039.005-.058.027-.078a.581.581 0 0 0 .098-.124.128.128 0 0 0 .008-.111.086.086 0 0 0-.045-.047c-.018-.006-.055 0-.061.012a.707.707 0 0 1-.229.247c-.034.024-.052.068-.035.102.029.061.012.115-.006.17a.388.388 0 0 0-.02.08.03.03 0 0 1-.017.025.488.488 0 0 0-.296.407c-.003.022-.007.049-.021.064-.092.108-.069.225-.045.346l.003.012.001.007.002.007c.011.057.045.063.08.07a.25.25 0 0 1 .031.008l-.003-.005a.013.013 0 0 0-.002-.006l-.003-.01c-.001-.004.002-.007.005-.011l.001-.002.002-.002a.025.025 0 0 1 .005.003h.001c.02.012.039.024-.001.039l-.002.012c-.006.033-.012.07.025.082.063.021.094.059.109.123.006.024.022.045.037.066l.014.018a.032.032 0 0 1 .004.022l-.001.014-.003.016a.762.762 0 0 1-.017.095c-.015.062-.04.07-.099.052a.337.337 0 0 1-.201-.172c-.007-.013-.008-.028-.01-.042-.003-.023-.005-.045-.029-.057l-.014.008c-.01.005-.02.01-.023.018a.196.196 0 0 0 .019.178l.033.046c.078.112.158.226.273.292.112.065.218.135.321.211a.222.222 0 0 0 .073.03l.028.008.009.005a.253.253 0 0 0 .113.046c.033.008.065.015.094.032.078.047.153.04.239.008.053-.02.086-.023.112-.007-.013-.015-.014-.037-.005-.057.013-.03.048-.036.074-.023.017.008.033.03.025.05-.013.042-.042.05-.071.043a.024.024 0 0 0-.005-.002h-.001l-.001-.001h-.001a.296.296 0 0 1 .052.077.807.807 0 0 1 .032.073c.02.053.041.108.092.145.152.111.168.256.091.425l-.001.003-.001.003c-.054.231-.007.439.156.594.231.22.305.162.394-.074.07-.187.144-.372.218-.558l.134-.331.159-.396c.054-.136.104-.273.152-.411.031-.09.007-.133-.08-.153l-.054-.01a.26.26 0 0 1-.14-.048c-.113-.094-.25-.094-.385-.09h-.009c-.037.002-.067.003-.091-.031a.098.098 0 0 1-.018-.07.03.03 0 0 1 .043-.025l.009.005.021.01a.139.139 0 0 1 .016.01l.01.005.006.006c.007.005.013.012.021.013h.002c.02.006.051.014.062.004.034-.032.073-.06.112-.09a.816.816 0 0 0 .148-.125.03.03 0 0 1 .052.023.283.283 0 0 0 .005.096c.017.06.071.087.127.114a.367.367 0 0 1 .1.064c.024.024.055.042.084.06l.009.005c.057.033.102.014.117-.055.059-.274.188-.517.328-.755l.008-.014a.955.955 0 0 0 .094-.19c.036-.108.092-.21.146-.311.026-.047.07-.074.123-.043a.033.033 0 0 0 .023.003l.095-.026h.002a.022.022 0 0 0 .028-.007l.017-.158.033-.312v-.004c.006-.047.011-.094-.031-.126a.03.03 0 0 1-.009-.029c.028-.153.088-.295.147-.437.075-.18.15-.359.159-.554v-.005a.75.75 0 0 1 .047-.376l.019.003-.018-.007.004-.017.003-.017c.01-.047.02-.094-.002-.14a.035.035 0 0 1-.001-.026l.038-.09a.842.842 0 0 0 .09-.31c.001-.046.026-.082.051-.118a.363.363 0 0 0 .039-.066c.011-.026.033-.028.056-.03l.02-.004c.048-.01.119-.156.099-.194-.001-.002-.004-.004-.007-.005l-.005-.002h-.003l-.002-.001h-.001l-.002-.001-.011-.002c-.026-.006-.053-.011-.056-.045-.004-.04 0-.081.03-.107.052-.045.106-.086.164-.123.085-.055.17-.066.243.024.037.045.072.033.119.009.021-.011.047-.011.074-.011a.4.4 0 0 0 .035-.001l-.008.006-.009.007-.035.03c-.017.018-.029.04-.017.063a.058.058 0 0 0 .077.028c.036-.017.07-.038.105-.06h.001l.051-.03c.066-.037.12-.023.144.049.02.062.037.127.053.19l.001.002.006.026.005.018a.03.03 0 0 0 .033.022l.099-.015a.025.025 0 0 1 .019.004c.024.015.05.028.076.012.118-.073.226-.153.229-.317a.674.674 0 0 1 .022-.14l.014-.064.012-.01-.009-.012.001-.007.002-.008.001-.005.003-.015.004-.029.003-.012.003-.017a.029.029 0 0 1 .035-.024.11.11 0 0 1 .066.046.539.539 0 0 1 .109.221c.007.04.023.074.053.097a.03.03 0 0 0 .048-.021.121.121 0 0 0-.011-.064.325.325 0 0 1-.023-.158.63.63 0 0 1 .011-.074c.012-.064.024-.129-.018-.194-.015-.024.019-.051.046-.07a.125.125 0 0 0 .03-.033l.012-.016.011.001.006-.002a.028.028 0 0 0 .012-.006c.011-.013.009-.025-.005-.035l-.003-.089.005-.003c.042-.025.083-.05.133-.035.009.002.015.01.018.018l.009.024.008.023c-.015.077.028.127.069.176a.45.45 0 0 1 .046.059c.025.04.085.023.105-.027.04-.099.025-.2.01-.3l-.001-.006.001-.01.004-.025c.004-.02.008-.04.015-.06.023-.066.051-.112.137-.131.13-.03.207-.196.191-.353-.001-.017-.026-.036-.043-.047-.01-.006-.034-.002-.042.006a4.865 4.865 0 0 0-.163.172l-.042.043c-.013.014-.026.023-.042.024-.013 0-.026.007-.028.02-.006.033-.033.048-.075.05a.152.152 0 0 0 .022-.034c.012-.02.024-.041.047-.051l.006.004-.001-.001v-.005l-.005.001c.071-.116.144-.231.234-.334l.012-.013c.031-.035.064-.071.063-.124a.257.257 0 0 0 .011-.028.15.15 0 0 1 .028-.055c.089-.091.127-.188.04-.332-.009-.014-.003-.033.012-.041.1-.056.129-.104.103-.184-.008-.024 0-.055.008-.082l.001-.008c.003-.01.02-.023.032-.025.013-.002.039.009.038.012-.005.046.024.054.053.062.02.006.039.012.046.032.012.038 0 .075-.012.112a.926.926 0 0 1-.141.39.29.29 0 0 0-.046.154 1.485 1.485 0 0 1-.054.296l-.002.005c-.007.024-.016.058.022.068.025.007.032-.015.038-.033a.297.297 0 0 1 .003-.01l.034-.095c.069-.193.139-.386.206-.58a11.3 11.3 0 0 0 .076-.22l.058-.172c.016-.047.016-.09-.019-.13-.051-.055-.074-.114-.022-.186.029-.039.029-.086.03-.133v-.04a.612.612 0 0 1 .024-.189c.062-.188.084-.385.106-.58l.003-.03c.012-.108.03-.21.065-.312a.035.035 0 0 0 .009-.036l.011.007.009-.009.118-.135c.03.032.03.068.013.105-.08.163-.093.337-.106.512a3.516 3.516 0 0 1-.012.145l-.004.053a.645.645 0 0 1-.013.108.768.768 0 0 0 .009.363l.001.009a5.633 5.633 0 0 0-.006.086c.063-.058.078-.13.093-.202a.585.585 0 0 1 .031-.111.285.285 0 0 0-.011-.25.03.03 0 0 1-.002-.024l.102-.28v-.001l.001-.002c.096-.266.193-.532.282-.8.008-.027.019-.053.03-.08.03-.077.061-.155.053-.242a.032.032 0 0 0-.005-.013c-.036-.062-.067-.123-.02-.196.007-.012.005-.028.005-.044l-.001-.016v-.004l.001-.002v-.004l.001-.001v-.001c.059-.133.038-.261-.018-.387a.032.032 0 0 1 .004-.033l.069-.077v-.04a1.028 1.028 0 0 0-.04-.046.027.027 0 0 0 .013.004l.028.003c.012.002.02.01.025.02a.67.67 0 0 0 .135.203.03.03 0 0 0 .05-.01c.019-.054.039-.105.059-.156.047-.124.093-.243.116-.369a.03.03 0 0 1 .006-.012.21.21 0 0 0 .039-.135.256.256 0 0 0 .053-.154.104.104 0 0 1-.026.02c-.03.018-.029.053-.027.086v.049a.484.484 0 0 1-.033.039c-.011.01-.018.024-.025.038l-.004.006-.006.011-.072.099c-.065.005-.089.056-.112.105l-.002.004-.004.003a.04.04 0 0 0-.038 0l-.127-.027.002-.019.005-.057.005-.052a.034.034 0 0 1 .013-.022c.029-.022.03-.05.008-.082l.006-.032.011-.058a.41.41 0 0 1 .065-.094.325.325 0 0 0 .077-.129c.023.014.041.01.054-.009a.04.04 0 0 1 .013-.01l.006-.003.005-.002.008-.004h.002l.005-.003c.031-.013.062-.026.092-.042.013-.006.024-.007.033-.003-.034-.035-.053-.084-.042-.122.007-.026.012-.053.018-.08.014-.075.029-.15.088-.212.052-.051.095-.117.087-.2l.024-.181a.034.034 0 0 1 .007-.017c.049-.052.092-.105.05-.187-.019-.036-.009-.077 0-.116a.03.03 0 0 1 .016-.02c.098-.053.142-.146.186-.24.03-.062.06-.125.106-.176a.18.18 0 0 0 .049-.146.03.03 0 0 0-.037-.027c-.058.014-.111.043-.134.096-.06.136-.148.25-.241.362a.16.16 0 0 0-.032.084c-.001.011.01.024.022.036l.005.005a.026.026 0 0 1 .008.022l-.016.3a.033.033 0 0 1-.015.024c-.053.035-.053.09-.052.145l-.001.03a.03.03 0 0 1-.006.019l-.049.059-.127.157c-.019.024-.038.046-.07.049-.064.005-.094.049-.125.093a.518.518 0 0 1-.026.036.029.029 0 0 1-.026.01l-.013-.001h-.004l-.007-.001-.013-.002a4.64 4.64 0 0 0-.037-.003l-.019-.035h-.001c-.015-.028-.031-.056-.044-.085-.017-.037-.042-.055-.078-.054a.028.028 0 0 1-.018-.004c-.064-.044-.122-.09-.113-.178a.03.03 0 0 0-.018-.032.152.152 0 0 0-.013-.004h-.007a.03.03 0 0 0 .025-.037c-.01-.044.001-.051.053-.07.063-.02.104-.055.121-.118l.022-.09v-.002l.009-.035.001-.008c0-.012-.002-.024-.003-.035-.005-.04-.009-.08.028-.11a.283.283 0 0 0 .078-.129c.009-.023.018-.047.03-.07.044-.079.061-.153.009-.236.066-.01.087-.043.082-.124l-.001-.046a.17.17 0 0 0-.036.01c-.07.03-.099.083-.056.143a.12.12 0 0 1 .01.016h.001l-.006.002-.008.001a.447.447 0 0 0-.284.164.028.028 0 0 0-.003.036c.001.004.004.007.006.01a.03.03 0 0 0-.045-.004c-.062.06-.058.068-.019.14.006.013.012.03.009.041-.011.038-.043.051-.073.065l-.033.015a.043.043 0 0 1-.042.001.03.03 0 0 0-.026 0c-.048-.118-.024-.221.063-.298a.375.375 0 0 0 .126-.281c.01-.167.062-.324.113-.481.024-.075.049-.15.069-.227a.204.204 0 0 1 .078-.109c.034-.026.031-.063.028-.099v-.005c-.068-.096-.029-.196.013-.28.069-.137.123-.272.107-.431-.001-.02.016-.042.033-.064l.005-.006.005-.006.003-.005a.028.028 0 0 0 .002-.028.077.077 0 0 1 .004-.072.404.404 0 0 0 .043-.241c-.01-.099.038-.184.087-.267l.027-.048a.013.013 0 0 0 .002-.006l.004-.01c.029-.096.059-.192.013-.292l-.002-.004-.001-.01.004-.127c.02-1.25-.564-.868-1.054-1.154Zm.197 4.723a.668.668 0 0 0-.188.365.343.343 0 0 1-.05.121.508.508 0 0 0-.032.063h-.001a.175.175 0 0 1-.002.024l-.004.069c-.002.032.007.059.043.067.031.006.065.01.085-.013a.316.316 0 0 0 .056-.097l.019-.054a.468.468 0 0 1 .098-.188.352.352 0 0 1 .017-.03.3.3 0 0 0 .035-.009.03.03 0 0 1-.035-.032.166.166 0 0 0-.003-.063c-.024-.087.031-.137.122-.194l.003-.049-.007-.005c-.032-.027-.048-.04-.064-.04-.015 0-.029.014-.058.04h-.001a.253.253 0 0 1-.022.016l-.011.008Zm-.305.597-.003.01a1.38 1.38 0 0 1 .003-.01Zm-.127.451a.858.858 0 0 0-.014.05l-.001.007a.37.37 0 0 1-.001.002v-.004l.001-.003.015-.052Zm-.154.398a.088.088 0 0 0 .007.074.107.107 0 0 1 .016.07.109.109 0 0 0-.017-.068.092.092 0 0 1-.006-.076Zm.001.194c-.008.023.011.048.035.04a.114.114 0 0 0 .052-.031c.039-.04.066-.017.093.006a.283.283 0 0 0 .021.017c-.037.094.002.152.07.199.016.01.04.003.045-.016a.201.201 0 0 0 0-.084l-.005-.038c-.003-.044-.034-.065-.07-.077a.03.03 0 0 1-.021-.032l.001-.013.001-.001c.003-.03.005-.062.014-.09.018-.057.056-.081.108-.075a.03.03 0 0 1 .026.035l-.008.036c-.008.036-.017.073-.001.113.029.074.102.096.155.035.007-.008.013-.018.019-.027a.116.116 0 0 1 .047-.05.028.028 0 0 1 .018 0c.103.023.109.022.143-.084a.032.032 0 0 1 .025-.021c.036-.006.07-.004.093.026l-.009.016.015.014a.042.042 0 0 1-.005.01.245.245 0 0 0-.054.113l-.013.033c-.009.025-.017.05-.03.073-.018.032-.044.043-.061 0l-.002-.004-.001-.005-.001-.003c-.016-.04-.031-.079-.088-.056-.07.028-.091.076-.06.147.008.019.023.034.038.05l.019.02c.004.044.013.085.052.11l-.002.021c.037.016.044.045.044.077 0-.025-.004-.048-.024-.065a.029.029 0 0 0-.036 0l-.163.122c-.031.023-.029.056-.006.077.032.03.071.054.11.072.007.003.02-.008.033-.019l.006-.005.012-.009a.088.088 0 0 0 .039-.082l.018-.04c.007-.011.019-.018.032-.016l.042.006v.02c-.001.044-.001.087.036.12a.797.797 0 0 0 .036.242c.02.076-.015.103-.098.099-.081-.004-.116-.054-.141-.12-.011-.03-.035-.063-.061-.034-.083.091-.184.157-.285.223a2.674 2.674 0 0 0-.106.07l-.028.004a.39.39 0 0 0-.188-.011c-.028.002-.055.005-.083.005-.115.001-.165.058-.189.157-.01.045.003.074.056.073.076-.002.107.039.106.115a.79.79 0 0 0 .006.084.988.988 0 0 1 .007.077c0 .065-.015.12-.092.137-.079.016-.108.08-.121.15-.016.083-.026.165-.037.248l-.003.023-.004.027-.002.01v.002l-.001.004c-.004.023-.009.047.01.069.016.017.071-.01.091-.05a.232.232 0 0 0 .016-.044.567.567 0 0 1 .016-.042c.035-.076.079-.112.111-.089.031.022.028.054.026.085a.258.258 0 0 0-.002.028c0 .008.005.015.012.02l-.01-.006a2.88 2.88 0 0 0-.025.087.099.099 0 0 0-.044.097.442.442 0 0 1-.041.117.355.355 0 0 0-.043.142.289.289 0 0 1-.127.032c-.018 0-.03-.019-.026-.036l.011-.055.001-.002v-.002l.003-.008c.012-.032.026-.068-.011-.088-.029-.016-.051.016-.057.05l-.026.024-.015.015a1.371 1.371 0 0 1-.04.04l-.02.012-.016.01-.101.06c-.027.015-.051.032-.049.07l-.036.147a.123.123 0 0 1-.014-.003.073.073 0 0 0-.031 0c-.064.016-.078.048-.037.092.008.009.02.014.031.019a.03.03 0 0 1 .017.04.672.672 0 0 1-.168.26.194.194 0 0 0-.065.187c.022.089.007.145-.068.194-.02.013-.033.034-.047.056a.361.361 0 0 1-.023.034c-.021.026-.029.051-.015.084.019.048.033.098.047.149.025.089.049.178.106.254a.077.077 0 0 1 .012.02c.001.007.005.014.008.02.007.017.014.034.009.045-.026.055-.004.1.018.144.018.035.035.07.029.11-.01.072-.019.07-.136.053l-.014-.002a.03.03 0 0 0-.034.027 1.073 1.073 0 0 1-.036.168l-.005.02a.03.03 0 0 1-.043.018c-.028-.017-.047-.04-.043-.081 0-.012.002-.024.004-.037.007-.054.016-.116-.033-.127-.055-.013-.073.039-.091.09-.007.017-.013.034-.02.048-.034.064-.031.113.041.15.015.009.024.03.033.05a.358.358 0 0 0 .003.008.03.03 0 0 1-.005.033c-.047.048-.108.074-.168.1l-.013.004c-.024-.011-.043-.009-.054.014a.131.131 0 0 1-.006.01c-.001 0-.002 0-.002.002l-.004.002-.082.052h-.021l-.008.02c-.026.011-.05.024-.052.058a.423.423 0 0 0 .058.01l.025.003a.609.609 0 0 1-.069-.01.029.029 0 0 0-.026.008l-.005.004c-.012.012-.025.024-.038.024a.201.201 0 0 0-.186.114c-.049.1-.134.138-.223.178l-.003.001c.05-.168.01-.328-.029-.488-.012-.05-.025-.102-.035-.153a.03.03 0 0 0-.008-.015c-.093-.094-.102-.174-.006-.208.076-.026.103-.066.129-.138a.605.605 0 0 1 .287-.315c.096-.052.14-.132.185-.213a.463.463 0 0 1 .017-.032l.009-.017.025-.04c.052-.085.104-.17.083-.28-.004-.02-.002-.053.01-.065a.617.617 0 0 0 .118-.17.54.54 0 0 1 .151-.2c.087-.063.138-.162.091-.284-.023-.062-.001-.122.024-.18l.009-.018c.017-.036.033-.072.027-.113-.005-.031-.028-.074-.055-.052-.035.03-.069.013-.098 0-.024-.012-.045-.022-.062-.007-.021.02-.028.054-.036.089-.004.02-.008.042-.016.06-.009.022-.027.041-.044.06l-.01.012c-.022.023-.042.048-.039.08.015.136-.048.236-.134.329-.014.014-.018.037-.022.06l-.006.026c-.001.006.002.02.006.02h.001c.012.005.029.011.038.006a1.02 1.02 0 0 0 .068-.049c.018-.014.045-.001.047.021.013.128-.011.188-.115.23-.097.039-.142.108-.184.19-.106.205-.294.251-.497.27-.035.003-.062-.05-.046-.086a.835.835 0 0 1 .126-.192l.006-.007c.042-.052.087-.108.084-.186a.03.03 0 0 0-.04-.026c-.11.043-.205.108-.298.171h-.001a2.547 2.547 0 0 1-.125.083c-.014.01-.022.03-.029.051a.03.03 0 0 0 .019.04l.066.018-.067-.02-.02-.005a.03.03 0 0 0-.019 0c-.097.037-.15.116-.194.204a.031.031 0 0 1-.024.016c-.024.002-.048.006-.066.024a.029.029 0 0 1-.03.007l-.018-.006-.014-.005-.031-.011c-.079-.027-.083-.029-.11.049a.774.774 0 0 1-.116.216.352.352 0 0 0-.083.227l-.007.023-.012.006-.007.004-.008.004-.019.01-.017.009a1.56 1.56 0 0 0-.155.087c-.045.029-.078.07-.049.137.018.04-.023.043-.054.043a.25.25 0 0 1-.126-.043.336.336 0 0 0-.086-.038c-.022-.005-.045-.005-.057.019-.007.013-.003.028.001.043.006.023.011.045-.019.056a.218.218 0 0 1-.08.008h-.01a.029.029 0 0 0-.028.024.213.213 0 0 0 .026.14.03.03 0 0 0 .044.01 1.5 1.5 0 0 0 .027-.02c.082-.064.158-.042.174.053.009.054.004.109-.03.15-.033.04-.078.031-.121.023l-.026-.004.009.024.009.023c.003.01.012.017.023.019.006 0 .011.002.017.003h.003l.007.001c.029.005.057.01.085.01.103 0 .149.055.162.143a.03.03 0 0 1-.02.032c-.019.008-.039.014-.058.021a.03.03 0 0 1-.018.001l-.013-.004a.168.168 0 0 0-.045-.009c-.066 0-.099-.033-.117-.081a.03.03 0 0 0-.046-.014l.002-.001a.767.767 0 0 0 .031-.035l.005-.03-.011-.03a.196.196 0 0 1-.008-.022l-.016-.044-.005-.009c-.04-.049-.071-.1-.053-.166a.03.03 0 0 0-.002-.024c-.033-.056-.051-.114-.03-.18l-.002-.005c-.057-.019-.06-.063-.055-.112v-.005l-.001-.005-.006-.029a.408.408 0 0 0-.02-.078c-.056-.153.009-.268.112-.372l.01-.01c.024-.025.047-.05.084-.05.067 0 .111-.039.156-.079l.02-.017.002-.002c.053-.045.081-.069.088-.098.009-.033-.008-.073-.043-.156h-.001l-.022-.054a.011.011 0 0 1-.002-.005v-.002l-.001-.004c.002-.15-.057-.28-.122-.41-.046-.093-.091-.178-.199-.207-.043-.012-.058-.05-.05-.091a.072.072 0 0 1 .061-.06c.004 0 .007 0 .01-.002h.003l.004-.002.005-.001c.206-.043.283-.045.296.206a.494.494 0 0 0 .148.352c.03.027.05.064.07.101.014.025.028.05.044.072.054.073.133.102.254.055a.03.03 0 0 1 .022 0c.094.04.191.035.262-.014.139-.095.263-.204.308-.381.027-.105.064-.208.1-.31l.007-.02a.76.76 0 0 1 .181-.264c.064-.066.121-.11.219-.065.04.018.09.02.137.02h.019a.202.202 0 0 0 .177-.088 1.11 1.11 0 0 0 .14-.265c.048-.13.105-.258.161-.385l.019-.041.009-.02c.028-.063.091-.066.123-.008.023.042.043.086.063.13l.037.078.028.06c.033.071.065.142.119.2.081.086.17.073.217-.035.026-.06.048-.12.07-.182h.001v-.002l.01-.028.011-.03.004-.01.003-.007.004-.014.002-.006.002-.003.002-.006.003-.013c.01-.03.02-.061.038-.087a.538.538 0 0 0 .091-.303.382.382 0 0 1 .123-.267c.06-.063.101-.129.086-.226a.27.27 0 0 1 .071-.214.335.335 0 0 0 .088-.299c-.002-.013.005-.028.012-.044.003-.007.007-.013.009-.02l.001-.001a.47.47 0 0 0 .37-.06.13.13 0 0 1 .072-.024c.014 0 .028-.01.03-.024l.003-.016.003-.011c.008-.033.017-.068-.021-.105-.058-.056-.073-.143-.07-.228a.136.136 0 0 0 .002-.02c.005-.03.009-.06-.046-.044h-.001c-.08.023-.101.093-.123.161l-.003.01-.001.003-.002.004-.005.01-.008.012a.37.37 0 0 0-.027.051c-.018.045-.05.048-.089.038l.001.02c.001.016.001.031.008.043a.11.11 0 0 1 .018.064.116.116 0 0 0-.018-.063.082.082 0 0 1-.008-.042.142.142 0 0 0-.002-.02c-.018-.084.024-.149.07-.21a.444.444 0 0 0 .081-.245l.001-.004v-.003a.184.184 0 0 1 .003-.005.256.256 0 0 1 .022-.035l.012-.017Zm-4.063 5.61-.001.002.001-.002Zm3.052-.646-.001-.01.001-.018-.001.004v.019l.001.002v.003Zm-4.422-3.41a.255.255 0 0 1-.038.107c-.021.033-.058.048-.124.036-.043-.009-.084-.056-.098-.118-.017-.075-.048-.126-.127-.14-.023-.004-.034-.031-.019-.053a.03.03 0 0 0 .005-.006l.007-.01.01-.01c.023-.028.046-.055.039-.093-.026-.142.049-.245.123-.347l.006-.01a.017.017 0 0 1 .004-.004l.005-.007.006-.008c.023-.03.047-.06.039-.102-.015-.08.036-.119.087-.157h.001l.011-.008c.035-.026.066-.032.087.02.015.036.058.275.06.319.004.12-.02.236-.043.352a1.97 1.97 0 0 0-.04.24h-.001Zm.545-1.15a.047.047 0 0 1-.051.035.057.057 0 0 1-.039-.02 20.28 20.28 0 0 1-.201-.308 2.464 2.464 0 0 1-.096-.157.145.145 0 0 1 .007-.154c.029-.05.105-.07.136-.027.086.117.169.237.248.36.035.054.026.116.016.181l-.003.028-.001.004-.002.007-.014.05Zm.042 1.98c-.003.007-.028.008-.039.003a.062.062 0 0 1-.026-.034.086.086 0 0 1 .001-.032v-.009l.001-.007v-.006c.05-.064.058-.14.028-.226-.014-.04.032-.065.072-.064.039 0 .084.017.078.061a.812.812 0 0 1-.114.315h-.001Zm4.266-10.203a.032.032 0 0 0 .006-.02c-.064-.478-.304.366-.006.02Zm-3.703 9.79-.059.028a1.422 1.422 0 0 0-.085.039c-.069.035-.132 0-.13-.077 0-.023.002-.047.01-.068.037-.116.075-.233.116-.348a.198.198 0 0 1 .086-.104c.047-.028.118-.013.138.034a.058.058 0 0 1 .005.012h.001v.001l.001.002c.035.08.069.16.039.246l-.006.028v.002l-.003.016-.003.017-.003.012-.008.042a.164.164 0 0 1-.098.119h-.001Zm.053 1.461c-.016.05-.066.095-.101.1h-.012c-.036-.01-.063-.031-.068-.071-.006-.061.053-.138.112-.145a.058.058 0 0 1 .039.015c.03.027.043.063.03.101Zm1.646-7.94h-.001a2.048 2.048 0 0 1-.113-.02c-.046-.009-.083-.027-.096-.083a.328.328 0 0 0-.022-.066c-.012-.029-.024-.057-.026-.087-.008-.093-.031-.16-.128-.194-.055-.019-.081-.073-.099-.128a.03.03 0 0 0-.021-.02h-.001l-.016-.005-.017-.004-.035-.008c-.054-.012-.072-.047-.061-.099.011-.053.041-.074.096-.052.02.009.042 0 .056-.022-.003-.113.027-.209.123-.278.083-.06.121-.064.2-.002.019.015.035.034.051.052a.07.07 0 0 1 .008.009l.006.007a.03.03 0 0 0 .031.009c.026-.008.056-.017.067.005.038.076.091.14.145.204.049.059.098.117.135.185l.005.011c.036.064.069.125.054.205a.181.181 0 0 0 .011.113c.055.105.05.208.02.315a.03.03 0 0 1-.054.009.196.196 0 0 1-.021-.08c-.004-.032-.007-.064-.026-.087a.027.027 0 0 0-.026-.01c-.021.005-.029.023-.036.04l-.003.007a.168.168 0 0 1-.003.006l-.003.004c-.036.061-.089.079-.156.069-.015-.001-.029-.004-.044-.006Zm1.184 5.35c-.018.012-.036.035-.038.055-.019.124-.098.185-.208.219-.029.008-.045.032-.061.055a.257.257 0 0 1-.017.024c-.102.127-.177.098-.267-.09-.005-.01-.014-.018-.026-.018-.01 0-.025-.013-.041-.028-.018-.018-.039-.037-.055-.034-.109.018-.174-.044-.24-.106a.45.45 0 0 0-.116-.09.031.031 0 0 1-.015-.016c-.022-.062-.064-.111-.105-.16a.646.646 0 0 1-.093-.131 2.45 2.45 0 0 0-.325-.516c-.034-.04-.033-.063.008-.09l.016-.009.009-.005.014-.009c.039-.025.039-.063.039-.1V37.8c-.025-.034-.026-.069-.001-.102.017-.022.041-.031.066-.04a.33.33 0 0 0 .028-.012c.065-.03.065-.038.012-.132a.024.024 0 0 0-.008-.009c-.048-.039-.045-.091-.025-.142.05-.127.232-.19.345-.12.164.103.312.228.457.356a.141.141 0 0 1 .046.076c.008.034.03.054.066.043.048-.016.088-.002.126.029l.014.011a.167.167 0 0 0 .062.04c.194.053.25.208.311.375l.001.001.005.016.003.009c.025.069.033.14.041.21a.838.838 0 0 0 .043.214.21.21 0 0 1-.072.25h.001Zm1.494-2.88c-.059.08-.103.172-.14.264a1.777 1.777 0 0 1-.131.254.03.03 0 0 1-.055-.012 22.521 22.521 0 0 0-.012-.117v-.002a13.44 13.44 0 0 0-.04-.355 1.207 1.207 0 0 1 .048-.548c.056-.167.116-.336.227-.478.041-.052.092-.05.13.007a.75.75 0 0 1 .123.508c-.019.166-.045.335-.15.479Zm.718-2.269c-.034.021-.048-.012-.059-.04a.013.013 0 0 0-.002-.005c-.018-.044-.041-.084-.085-.103-.089-.04-.117-.12-.13-.204-.022-.141-.038-.284-.054-.426l-.001-.008c-.001-.006.007-.012.016-.02a.202.202 0 0 0 .009-.008l.002-.003.002-.001.002-.002.001-.001v-.001l.022.07c.015.05.029.1.052.146.019.038.044.073.069.108.02.028.039.055.056.084.045.08.087.162.124.245a.17.17 0 0 1 .008.09c-.004.028-.012.068-.033.08h.001Zm-6.88 12.591a1.21 1.21 0 0 0-.026.05l-.004.012-.007.087-.016.18a.262.262 0 0 0 .044.175c.053.081.168.072.226-.005a.395.395 0 0 0 .062-.208.69.69 0 0 1 .019-.12c.007-.025-.014-.047-.036-.05-.02-.003-.047 0-.062.012l-.005.004c-.03.025-.045.037-.058.035-.013-.002-.023-.02-.043-.056l-.004-.006-.003-.005a.327.327 0 0 0-.061-.07l-.018-.019a.022.022 0 0 1-.008-.016Zm2.346-3.166c.028.02.056.013.078-.013.01-.028-.004-.045-.026-.055-.021-.01-.045-.014-.061.009a.04.04 0 0 0 .009.059Zm3.434-2.461-.02.007.013-.005.008-.002a.256.256 0 0 1 .009-.004l-.01.004Zm-6.586 7.73c.001.006.006.017.01.017h.001c.018.002.026-.01.018-.028-.003-.008-.01-.014-.016-.021l-.009-.01c.005-.054-.021-.095-.047-.136l-.021-.033a.394.394 0 0 1-.008-.047l.004.03a.032.032 0 0 1-.007.022l-.017.02-.018.02a.031.031 0 0 0-.006.027c.014.06.036.113.119.098l-.001.01-.002.031Zm3.996-6.198a.047.047 0 0 0-.007-.003l-.007-.004-.019-.004-.026-.005-.011-.002a1.142 1.142 0 0 1-.018-.003l.032.006.042.008.007.004.004.002.003.001Zm-1.473 2.47a.126.126 0 0 1-.005.018h.001c.049.006.096 0 .137-.03.049-.102.11-.188.227-.196a.03.03 0 0 0 .028-.027c.001-.03.026-.046.052-.062l.003-.002a.026.026 0 0 0 .011-.013l.019-.037c.019-.04.039-.079.055-.12a.207.207 0 0 1 .081-.11l.007-.005c.022-.015.048-.033.072-.016.04.029.018.066-.001.098l-.001.002a.25.25 0 0 1-.035.048l-.006.006c-.025.032-.045.07-.02.105.02.027.039.02.059.008a.03.03 0 0 1 .04.042l-.008.013-.003.006c-.025.041-.051.082-.043.134a.033.033 0 0 1-.009.028l-.041.037.022-.02.02-.018a.03.03 0 0 1 .027-.007l.048.01.222-.246a.03.03 0 0 0 .008-.02v-.025l-.001-.037c0-.006.003-.013.007-.019l.005-.006.001-.001a.03.03 0 0 1-.034.006c-.078-.038-.076-.044-.043-.112a.552.552 0 0 1 .02-.038c.011-.021.023-.042.031-.064.011-.032-.015-.052-.038-.07l-.003-.003-.018.019c-.014.013-.026.027-.04.038-.025.02-.05.02-.068-.011a.36.36 0 0 0-.225-.004.03.03 0 0 0-.015.009l-.028.032-.07.077-.001.014c-.004.032-.008.065-.052.066a.033.033 0 0 1-.03-.018.03.03 0 0 0-.038-.013.773.773 0 0 1-.186.05c-.056.008-.079.052-.06.1.053.13.018.238-.063.34-.009.011-.013.027-.018.043Zm-.728 2.24Zm.649-1.388c.007-.02.013-.04.025-.05-.012.01-.019.03-.025.05Zm.57-.446.028-.074a1.89 1.89 0 0 0-.025.067c-.021.057-.043.113-.059.172.016-.056.036-.11.056-.165Zm-1.292 1.155.004-.005a.066.066 0 0 1 .01-.01h-.001c.015-.025.007-.04-.02-.048l-.011-.008c-.086.008-.129.068-.171.128a.441.441 0 0 1-.077.09.448.448 0 0 0-.122.193c-.013.035-.028.08-.018.113.039.124-.032.19-.118.247-.048.031-.085.065-.078.128.052.03.102.017.152.004a.416.416 0 0 1 .062-.013.03.03 0 0 0 .025-.024c.007-.036.016-.072.047-.099.022-.019.064-.008.07.022.008.04.007.076-.019.105a.03.03 0 0 0-.001.04c.033.038.08.04.126.043h.012l.005.001a.03.03 0 0 0 .03-.02l.066-.185a.029.029 0 0 0-.004-.028c-.048-.068-.035-.138-.003-.208a.03.03 0 0 1 .03-.017.193.193 0 0 1 .004.001.03.03 0 0 1-.025-.027.438.438 0 0 0-.061-.172c-.049-.09-.03-.161.052-.219a.24.24 0 0 0 .034-.032Zm-.262-.321a.031.031 0 0 0 .008-.02c-.001-.038-.009-.07-.045-.08a.03.03 0 0 0-.034.017l-.001.002a.233.233 0 0 0-.021.056.076.076 0 0 0 .016.056c.017.018.039.003.056-.01a.125.125 0 0 0 .019-.018l.002-.003Zm-.5 1.18Zm-.541 1.731c.017.002.034.003.042-.005a.534.534 0 0 1 .308-.161h-.001c.1-.014.108-.048.108-.16 0-.097-.027-.164-.125-.188a.339.339 0 0 1-.149-.099c-.007-.007-.024-.004-.04-.002a.131.131 0 0 1-.023.003.802.802 0 0 1-.21.182l-.028.02c-.049.034-.099.068-.145.107-.032.027-.034.064-.008.1.024.034.056.051.097.041.013-.004.024-.014.036-.024.022-.02.044-.039.078-.01.026.023.023.053.02.083a.15.15 0 0 0 0 .047c.002.015.007.03.012.045l.006.02.022.001Zm.501-.014c-.004.012-.001.034.008.041.008.008.033.007.041 0 .148-.122.289-.25.377-.426l.018-.03-.038.002h-.029c-.022 0-.043 0-.06.009a.608.608 0 0 0-.317.404Zm.025.314c0 .017.019.026.034.017a.057.057 0 0 0 .019-.023l.003-.005.004-.006c-.004-.02-.017-.028-.034-.017-.011.008-.026.023-.026.034Zm.745-.73a.275.275 0 0 0-.044.05v-.001c-.095.162-.211.301-.385.38a.324.324 0 0 0-.092.069.415.415 0 0 1-.035.029c-.043.035-.089.072-.065.135.015.039.056.042.098.045a.228.228 0 0 1 .065.01c.048.019.089-.003.112-.05l.007-.015.012-.028a.26.26 0 0 1 .081-.12c.015-.01.036-.002.043.015.04.095.034.171-.077.222-.022.01-.037.048-.047.076a2.56 2.56 0 0 1-.175.362l-.006.01a.973.973 0 0 0-.063.148.078.078 0 0 0 .019.085c.026.025.061.02.085.003.082-.055.164-.113.244-.17l.002-.001.072-.051c.022-.015.03-.041.018-.06-.055-.088-.012-.15.037-.218a.058.058 0 0 0 .007-.009l.011-.015c.032-.043.071-.095.042-.152-.031-.06-.023-.097.029-.136a.257.257 0 0 0 .088-.122.03.03 0 0 0-.017-.039l-.013-.005a1.676 1.676 0 0 1-.085-.034c-.016-.007-.032-.002-.049.002-.019.006-.038.012-.056.001a.03.03 0 0 1-.007-.042l.047-.067c.041-.056.082-.113.122-.171.021-.032.038-.068.026-.108-.003-.01-.014-.018-.025-.025l-.003-.002-.002-.002c-.005-.003-.018-.003-.021 0Zm2.03-4.252v-.001c.035-.074.071-.147.104-.222.026-.06.012-.13-.025-.146-.036-.016-.06.003-.085.022a.167.167 0 0 1-.035.023.142.142 0 0 1-.017.005l-.004.002h-.015l-.003-.001h-.006l-.008-.002.008.001a.029.029 0 0 1 .025.026c.01.082.007.164.002.248a4.502 4.502 0 0 0-.004.116h.004l.005-.002h.004l.003-.001h.001c.008-.002.014-.002.015-.005a.601.601 0 0 0 .017-.037l.014-.026Zm3.794-6.691h-.027.032-.005Zm.15.976a.872.872 0 0 0-.007.05l.002-.015.002-.015v-.005l.001-.006.002-.01Zm.065-1.133v.004-.004Zm.016.914c-.041.017-.037.05-.017.085l.024-.015.058-.036c-.014-.026-.035-.047-.065-.034Zm-.177 1.015-.012-.016.012.016Zm-1.232 1.466Zm-.71 2.277a.028.028 0 0 0 .004-.012l-.005.014.001-.002Zm-.077.065c.029-.012.058-.023.073-.053-.015.03-.044.041-.073.053Zm-.057.329v-.002.002Zm1.328-2.667c.082-.014.134-.066.169-.14.03-.063.014-.108-.034-.162a.284.284 0 0 1-.051-.112l-.002-.005a.051.051 0 0 1-.004-.012v-.002l-.001-.004-.002-.005-.005-.013a.038.038 0 0 1 .002-.025c.035-.061.088-.105.14-.149l.01-.008.004-.004.009-.007-.022.019a.593.593 0 0 0-.134.136.028.028 0 0 1-.037.011c-.018-.008-.035-.011-.044.023l-.009.038a.293.293 0 0 1-.051.13.036.036 0 0 1-.016.023.36.36 0 0 0 .007.227c.01.03.037.047.071.041Zm1.375-2.813Z" clip-rule="evenodd"/><path fill="#fff" d="M191.226 48.956c.004-.01.025-.017.036-.016.014.001.033.011.037.022.022.07.009.115-.051.165-.019.015-.047.002-.049-.023a.38.38 0 0 1 .027-.148Zm-1.387 1.857c.039.06.013.285-.038.328h-.001c-.035.03-.077.023-.118.018h-.004l-.005-.002a.032.032 0 0 1-.026-.026l-.005-.059a.628.628 0 0 0-.047-.229c-.028-.058.015-.101.083-.095.037.003.076.01.111.022a.112.112 0 0 1 .05.043Z"/><path fill="#fff" fill-rule="evenodd" d="M192.904 45.06a.03.03 0 0 0-.023.002l.001-.001c-.029.018-.041.048-.047.083l-.02.088h-.001c-.003.013-.005.025-.009.037a.024.024 0 0 0 0 .012c.017.102-.048.162-.114.22a.02.02 0 0 0-.005.006l-.001.002c-.064.113-.173.12-.283.128l-.017.001h-.001c-.007.042-.018.082-.054.108-.011.069-.059.08-.107.09a.281.281 0 0 0-.051.014.025.025 0 0 1-.012.003c-.045-.001-.079-.026-.113-.05l-.002-.002c.036.027.072.053.121.052a1.864 1.864 0 0 1-.024.018l-.008.005-.004.003c-.063.047-.067.099-.015.14.023.02.048.019.075.018h.025a.03.03 0 0 1 .027.041.318.318 0 0 1-.124.155c-.043.032-.079.073-.119.118l-.034.04a.03.03 0 0 1-.048-.006c-.038-.066-.07-.12-.019-.197.05-.078.04-.094-.049-.12a.175.175 0 0 0-.045-.007l-.023-.001-.032.033c.011.078-.025.099-.078.097h-.007l-.005.001-.036.016c-.032.015-.064.03-.082.02-.053-.028-.108-.028-.164-.03a.352.352 0 0 1-.145-.021c-.062-.028-.122-.059-.149-.133-.013-.035-.045-.033-.066-.005l-.013.017a.13.13 0 0 1 .008-.038c.039-.118.087-.22.221-.268.02-.007.041-.012.061-.018a.377.377 0 0 0 .126-.05c.025-.016.069.002.07.036.002.045.029.07.055.095.017.017.034.032.044.053l.052.001c.025-.085.093-.093.165-.1h.004c.017-.002.042-.025.045-.042.004-.014-.016-.038-.03-.051a.118.118 0 0 0-.03-.018.125.125 0 0 1-.027-.015c-.028-.021-.026-.053-.023-.083.004-.038.032-.043.064-.048.031-.004.061-.012.092-.02l.025-.006a.03.03 0 0 0 .019-.015c.034-.062.091-.058.147-.055l.04.002c.012-.001.02-.008.025-.02v-.003l-.001-.004c0-.006-.001-.011.001-.014a.844.844 0 0 0 .086-.118c.038-.057.075-.113.128-.158.026-.008.042.004.055.02a.03.03 0 0 0 .031.008c.067-.021.071-.03.077-.122.001-.01-.004-.018-.011-.024-.039-.033-.029-.077-.019-.121l.001-.004-.027-.017-.02-.013-.014-.009a.317.317 0 0 1-.019-.011.03.03 0 0 0-.031 0 .386.386 0 0 1-.066.026c-.055.018-.112.037-.136.11-.008.024-.069.004-.063-.023.015-.062-.005-.084-.064-.085a.367.367 0 0 1-.09-.01c-.036-.009-.047-.035-.029-.07.024-.049.055-.095.109-.111a.35.35 0 0 0 .153-.096c.046-.047.091-.027.13.013l.005.004.004.003a.456.456 0 0 0 .18.004c.014-.053-.016-.068-.05-.085a.171.171 0 0 1-.02-.01c-.068-.038-.066-.077.001-.114a.869.869 0 0 1 .081-.04l.021-.01a1.05 1.05 0 0 1 .088-.038.6.6 0 0 0 .177-.091c.011-.01.041 0 .06.007.008.004.016.03.011.04-.049.088-.01.143.066.185.057.031.051.084.044.136l.001.011c.017.06.017.121.016.183 0 .065-.001.13.019.194.011.035-.021.07-.048.097-.027.029-.057.033-.09.025Zm-.322-.232c.028.023.042.051.035.088v.008l.021.15a.029.029 0 0 1-.018.032c-.029.011-.046.02-.053.03.008-.01.028-.02.062-.034a.03.03 0 0 1 .025.003c.036.019.071.019.104-.013a.231.231 0 0 1 .039-.097c.02-.036.042-.072.039-.117.014-.014.026-.03.006-.046-.003-.002-.012.002-.021.006a.077.077 0 0 1-.012.005c-.102-.006-.104-.007-.109-.101a.071.071 0 0 1-.005-.035.061.061 0 0 0 .005.035l-.082-.015a.025.025 0 0 1-.018-.01l-.003-.004.005.007a.022.022 0 0 0 .005.005 1.508 1.508 0 0 0-.016.064l-.009.04Zm.102-.166.024.008h.001a.736.736 0 0 1 .053-.255.03.03 0 0 0-.03-.042c-.135.013-.133.027-.115.17v.003a.246.246 0 0 1-.003.066.03.03 0 0 0 .02.032l.05.018Z" clip-rule="evenodd"/><path fill="#fff" d="M193.189 44.922a1.006 1.006 0 0 0-.048.079c-.048.084-.096.169-.214.185-.013.002-.033.039-.03.056l.005.03c.012.068.023.133-.068.172-.016.007-.027.061-.018.085.032.084.029.17.023.274v.019l-.001.026c-.001.03.039.043.055.017a.603.603 0 0 0 .09-.26.342.342 0 0 1 .066-.17c.113-.152.149-.33.172-.516h-.017c-.008 0-.013 0-.015.003Zm-.038-1.131-.001-.005h-.002l-.002.005h.005Zm.153.301.001-.002h-.001l-.001.002.001-.002h.001a.076.076 0 0 1 .019.02.016.016 0 0 0-.004-.003h-.001l-.001-.002-.004-.004-.01-.01Z"/><path fill="#fff" fill-rule="evenodd" d="M193.153 44.3c-.054-.113-.09-.222.006-.337h-.001c.034-.039.019-.083.005-.127l-.002-.006c-.006-.018.008-.036.027-.038a.064.064 0 0 0 .056-.038.236.236 0 0 0 .015-.06c.004-.018.007-.035.013-.052a.088.088 0 0 1 .043-.045c.026-.012.049.01.05.032.006.108.061.168.164.188.006.001.01.012.015.023l.002.005a.03.03 0 0 0 .004.01.73.73 0 0 1-.156.398 1.25 1.25 0 0 0-.103.167.902.902 0 0 1-.154.227c-.034-.024-.021-.045-.008-.065.006-.01.013-.018.014-.028l.003-.015a.987.987 0 0 0 .016-.12.39.39 0 0 0-.004-.077l-.001-.009-.001-.013v-.01c-.001-.003-.001-.007-.003-.01Zm.15-.229a.032.032 0 0 1-.014.027c-.05.03-.046.042.002.102l.003-.004c.025-.026.049-.053.029-.086.01.007.021.01.036 0 .08-.064.086-.084.034-.189a.03.03 0 0 1 .011-.038.256.256 0 0 1-.022.014c-.081.036-.082.105-.079.174Z" clip-rule="evenodd"/><path fill="#fff" d="M191.943 47.858c-.052-.015-.061.026-.066.064l-.006.053a.03.03 0 0 1-.014.022c-.099.065-.152.167-.204.269l-.007.013-.006.012c-.005.008.008.026.015.037.003.004.014.005.022.004.042-.002.07-.029.092-.06.041-.055.08-.11.118-.167l.017-.024.018-.027a.028.028 0 0 1 .011-.009.145.145 0 0 0 .064-.08c.018-.044-.005-.091-.054-.107Zm.481-1.158c.003-.022.015-.04.05-.041.017.002.027.02.025.044-.002.023-.015.043-.039.043-.025 0-.039-.02-.036-.045Zm.647-2.385-.008-.008c-.005-.008-.011-.015-.017-.016-.005-.001-.011.005-.018.011a.103.103 0 0 1-.009.008c.012.007.023.015.036.018.002.002.007-.003.011-.008l.005-.005Zm19.649-3.966c-.253-.305-.506-.61-.761-.912l-.001-.001c-.204-.242-.411-.48-.618-.72h-.001l-.001-.001-.206-.238-.258-.297h-.001l-.315-.364a.182.182 0 0 1-.027-.054l-.003-.005-.001-.004-.003-.006-.001-.004-.002-.005a.027.027 0 0 0-.005-.007l-.11-.131c-.223-.268-.446-.536-.671-.803a1.253 1.253 0 0 0-.105-.107l-.023-.023-.005-.004-.005-.005-.012-.01a.737.737 0 0 1-.145-.17c-.065-.113-.165-.197-.261-.278l-.024-.02a1.138 1.138 0 0 1-.349-.482.03.03 0 0 1 .005-.03l.002-.002.001-.002.002-.002.001-.003a.03.03 0 0 1 .047-.002l.101.115c.154.175.309.35.462.528.264.306.526.614.786.924.097.115.19.232.283.349h.001l.062.079.034.042.023.03h.001l.001.001c.241.247.463.51.682.776l.332.402c.181.222.363.445.548.664.104.122.213.24.322.358.078.084.155.167.231.253l.001.001c.192.25.393.495.621.714l.004.004c.141.205.309.387.476.569a10.237 10.237 0 0 1 .579.683l.152.192a.195.195 0 0 1 .033.06.065.065 0 0 1-.003.044c-.007.016-.023.015-.039.007a.47.47 0 0 1-.129-.12l-.004-.005-.182-.218c-.176-.21-.352-.42-.53-.627-.133-.154-.27-.305-.407-.455l-.001-.002-.176-.193-.026-.028a.775.775 0 0 1-.037-.04l-.345-.415Z"/><path fill="#fff" fill-rule="evenodd" d="M191.042 48.185c.061-.086.013-.149-.034-.211l-.005-.007-.003-.003-.003-.005c-.019-.026-.04-.049-.061-.073-.049-.056-.099-.11-.121-.19-.011-.04-.059-.02-.094-.007l-.007.003-.009-.012-.019-.024c-.123-.15-.301-.066-.358.091a.312.312 0 0 0-.013.093c-.001.015-.001.029-.003.043l-.01.014c-.008.01-.015.018-.017.017-.072-.036-.113-.01-.126.066-.009.06.032.078.079.091.018.005.036.012.054.019a.027.027 0 0 1 .015.012l.001.001c.014.024.031.052.059.05.071-.009.099.016.132.086.021.047.036.097.05.147.017.06.034.12.065.174l.01.022c.008.02.017.041.041.049.072.023.145.046.219.062.039.01.077-.014.096-.049.067-.123.119-.25.066-.393l-.001-.004c-.008-.022-.016-.043-.003-.06v-.002Z" clip-rule="evenodd"/><path fill="#fff" d="M204.004 29.606c-.087-.02-.138-.085-.19-.15l-.002-.003c-.026-.033-.05-.067-.075-.102a1.368 1.368 0 0 0-.168-.204 5.324 5.324 0 0 1-.461-.523l-.093-.115-.001-.001a3.169 3.169 0 0 0-.164-.21c-.163-.2-.326-.4-.354-.704a.03.03 0 0 0-.03-.028c-.262-.003-.366-.152-.472-.3-.023-.032-.045-.064-.069-.095a20.76 20.76 0 0 1-.054-.069c-.062-.08-.124-.162-.196-.232-.124-.15-.148-.187-.222-.299a21.624 21.624 0 0 0-.306-.444c-.016-.033-.043-.042-.076-.028a.068.068 0 0 0-.031.096.478.478 0 0 0 .055.074l.065.067c.034.034.067.068.093.1l.024.034.036.047.001.002h.001c.065.09.169.229.252.335a55.107 55.107 0 0 0 .594.735l.09.11c.213.26.427.521.622.797.014.02.035.036.056.051l.029.023.002.003c-.002.025.01.04.034.048l.004.007c-.001.025.011.04.034.046l.005.007c0 .025.012.04.034.048.064.076.121.156.179.237.093.131.187.263.31.371a.44.44 0 0 1 .094.13c.064.125.152.23.245.332.004.036.027.06.058.041a.23.23 0 0 1 .102-.039l.03.032c.001.022.007.043.012.065.008.03.016.06.009.092a.029.029 0 0 1-.026.023c-.061.005-.074.06-.064.105.033.14.101.262.238.326a.032.032 0 0 0 .014.003c.059 0 .116.005.159.056.02.026.042.05.065.074.045.05.091.099.123.156.055.1.131.183.206.265.073.081.146.162.201.258.023.04.063.064.114.025.014-.01.026-.006.039.001.027.015.055-.017.038-.042l-.006-.011a1.478 1.478 0 0 0-.086-.128 57.72 57.72 0 0 0-.216-.27 18.057 18.057 0 0 1-.284-.357c-.053-.068-.108-.134-.163-.2a2.754 2.754 0 0 1-.329-.448c-.004-.006-.004-.012-.004-.019.013-.1-.016-.176-.125-.2Zm-8.426 5.868a.745.745 0 0 0-.056.079h-.001c-.009.014-.032.02-.056.025a.053.053 0 0 0-.007.002c0-.038.006-.07.044-.096.03-.02.006-.046-.009-.051-.083-.027-.113-.076-.061-.153.025-.039.016-.071.006-.106a.183.183 0 0 1-.007-.023l-.001-.007-.002-.007c-.013-.05-.025-.099.011-.158l.025-.047c.023-.045.044-.088.087-.113.019-.01.042.003.045.025.009.083.071.126.14.163a.03.03 0 0 1 .015.033.143.143 0 0 0-.004.02c-.009.044-.017.087-.067.115l-.013.034c.026.115-.031.19-.089.265Z"/><path fill="#fff" d="m187.283 39.953 5.7-13.48 3.555 8.274-5.361 14.998-.269 1.409h-.402l-1.388-.591-.313-2.361-.985-1.317v-.773h-.537l-1.074.364-.929-1.717 1.354-3.18.649-1.626Zm18.738-31.541-3.173-4.588-6.315 13.645 8.017-4.813 1.471-4.244Zm-13.4 14.684 2.5-3.238L180.05 1.392l-.193.27-.114.338-.201.128-.12.337-.348.44v.368l-.191.284-.234.035-.225.32-.188.314-.04.296-.212.331-.212.067-.149.282-.176.222 15.174 17.672Zm20.666 20.808-.77 1.955-1.927-1.955-1.841-1.086-10.381-12.369 1.135-3.18h1.198l8.776 10.294v.478l1.113 3.518 1.927.608.77 1.737ZM201.22 25.896l13.718 16.585-.066.32-13.948-16.732.296-.173Zm-3.092 5.204 14.563 17.315c.09.107.259.088.323-.037a.202.202 0 0 0-.024-.222l-14.719-17.53-.143.473ZM180.783.396l14.47 18.023-.183.37L180.588.742l.195-.346Z"/><path fill="#fff" d="m203.333 14.863-9.059 5.517-.451.748-1.208 1.944.201.247 7.815-4.717 2.702-3.74Zm1.479-1.8-9.736 5.755.179-.466 10.348-6.242-.791.953Zm-3.675 5.915.534-.808-8.819 5.343-.228.61 8.513-5.145Zm-23.631-13.13 15.327 17.695-.228.54-15.471-17.706.372-.529ZM61.265 15.471h6.504V35.83h8.665v5.896h-15.17V15.471ZM10.75 31.547v4.326H0v5.896h17.255V29.12l-3.42-3.47h-7.33v-4.282h10.75V15.47H0v12.606l3.418 3.47h7.333Zm68.224 10.178V15.471h15.753v5.897h-9.25v14.46h9.25v5.897H78.973Zm99.946-26.254v5.897h-6.111v20.357h-6.504V21.368h-6.11V15.47h18.725Zm-36.263 0h15.974v5.897h-9.47v4.866h7.893v5.896h-7.893v9.595h-6.504V15.471Z"/><path fill="#fff" fill-rule="evenodd" d="M97.425 15.471v26.254h6.504v-8.01h3.946l3.242 8.01h6.991l-3.807-8.91 2.534-2.57V15.47h-19.41Zm12.88 5.897h-6.376v6.45h6.376v-6.45Z" clip-rule="evenodd"/><path fill="#fff" d="M37.984 15.471v5.897h-6.11v20.357h-6.505V21.368h-6.11V15.47h18.725Z"/><path fill="#fff" fill-rule="evenodd" d="m136.821 15.471 3.838 26.254h-6.796l-.796-5.449h-6.036l-.762 5.45h-6.512l3.67-26.255h13.394Zm-7.705 5.897-1.261 9.012h4.35l-1.317-9.012h-1.772ZM45.554 36.276h6.036l.797 5.45h6.795L55.344 15.47H41.951L38.28 41.725h6.512l.762-5.449Zm5.174-5.896-1.317-9.012h-1.772l-1.26 9.012h4.349Z" clip-rule="evenodd"/></svg>